<svg width="92" height="22" viewBox="0 0 92 22" fill="none" xmlns="http://www.w3.org/2000/svg">
<path d="M80 22C86.6274 22 92 17.0751 92 11C92 4.92487 86.6274 0 80 0C73.3726 0 68 4.92487 68 11C68 17.0751 73.3726 22 80 22Z" fill="#FF2E00"/>
<path d="M46 22C52.6274 22 58 17.0751 58 11C58 4.92487 52.6274 0 46 0C39.3726 0 34 4.92487 34 11C34 17.0751 39.3726 22 46 22Z" fill="#FF2E00"/>
<path d="M12 22C18.6274 22 24 17.0751 24 11C24 4.92487 18.6274 0 12 0C5.37258 0 0 4.92487 0 11C0 17.0751 5.37258 22 12 22Z" fill="#FF2E00"/>
</svg>
