<svg width="534" height="377" viewBox="0 0 534 377" fill="none" xmlns="http://www.w3.org/2000/svg">
<g clip-path="url(#clip0_50_185)">
<path d="M264.254 64.0904C273.201 64.0904 280.454 56.2698 280.454 46.6227C280.454 36.9755 273.201 29.1549 264.254 29.1549C255.308 29.1549 248.055 36.9755 248.055 46.6227C248.055 56.2698 255.308 64.0904 264.254 64.0904Z" fill="#FF2E00"/>
<path d="M300.51 38.3514C300.053 36.7361 299.168 35.3001 297.964 34.2203C296.76 33.1404 295.289 32.4639 293.733 32.2738C293.697 32.2705 293.66 32.2705 293.624 32.2738C293.58 32.2591 293.536 32.2482 293.491 32.2411C288.067 31.4822 282.036 33.3271 277.977 37.3439C276.47 38.8115 275.265 40.6033 274.44 42.6037C273.688 41.4955 272.696 40.6018 271.551 39.9999C270.406 39.398 269.142 39.1061 267.869 39.1495C266.227 39.2665 264.659 39.9268 263.378 41.0401C262.097 42.1535 261.165 43.6659 260.71 45.371C260.66 45.5793 260.674 45.7995 260.749 45.9987C260.825 46.1979 260.958 46.3655 261.129 46.4766C261.617 46.9266 262.197 47.245 262.822 47.4056C264.162 47.713 265.515 47.9944 266.868 48.2495C269.514 48.7467 272.173 49.1501 274.846 49.4598C276.612 49.6626 278.382 49.8239 280.155 49.9439C283.82 50.1925 287.502 50.2514 291.173 50.1271C292.993 50.0616 294.74 49.9962 296.403 49.1327C297.614 48.4903 298.649 47.5184 299.406 46.313C300.118 45.1536 300.586 43.8398 300.777 42.4643C300.968 41.0888 300.877 39.6848 300.51 38.3514Z" fill="#E6E6E6"/>
<path d="M267.184 63.7999C267.153 63.0679 267.039 62.3429 266.844 61.641C266.385 60.0259 265.499 58.5904 264.294 57.5107C263.089 56.4311 261.618 55.7543 260.061 55.5634C260.027 55.5602 259.992 55.5602 259.958 55.5634C259.912 55.5494 259.865 55.5385 259.818 55.5307C256.816 55.1342 253.77 55.4719 250.906 56.5186C246.501 58.1083 242.636 61.3139 240.774 65.8933C240.021 64.7844 239.028 63.8903 237.882 63.2884C236.736 62.6865 235.471 62.395 234.197 62.4391C232.555 62.5562 230.987 63.2164 229.706 64.3298C228.424 65.4431 227.493 66.9555 227.038 68.6606C226.991 68.869 227.006 69.0881 227.081 69.2866C227.156 69.4852 227.288 69.653 227.457 69.7662C227.945 70.215 228.525 70.5333 229.149 70.6952C230.496 71.0027 231.843 71.284 233.202 71.5391C235.847 72.0363 238.505 72.4398 241.174 72.7494C246.598 73.3772 252.055 73.6001 257.507 73.4167C259.321 73.3512 261.074 73.2858 262.737 72.4223C263.946 71.7797 264.979 70.8078 265.734 69.6027C266.797 67.8937 267.307 65.8536 267.184 63.7999Z" fill="#E6E6E6"/>
<path d="M478.166 275.755C478.399 287.665 476.875 299.539 473.651 310.933C473.538 311.347 473.402 311.761 473.267 312.175H406.799C407.749 307.13 409.257 302.225 411.292 297.568C416.823 284.908 425.854 274.075 434.772 263.315C447.054 248.488 459.043 233.784 460.94 214.503C465.808 222.506 469.694 231.155 472.499 240.236C469.064 241.608 465.912 243.692 463.22 246.37C462.475 247.125 461.685 248.221 462.069 249.268C462.43 250.144 463.423 250.436 464.304 250.631C466.426 251.069 468.548 251.507 470.67 251.921C472.341 252.286 474.034 252.627 475.728 252.968C477.216 260.462 478.033 268.092 478.166 275.755Z" fill="#F2F2F2"/>
<path d="M534 267.867C523.343 274.854 516.57 285.663 511.039 297.763C506.225 298.946 501.781 301.463 498.147 305.066C497.379 305.821 496.589 306.916 496.996 307.963C497.334 308.84 498.35 309.132 499.231 309.326C501.33 309.765 503.475 310.203 505.575 310.617C505.372 311.128 505.169 311.664 504.965 312.175H434.524C437.722 307.525 441.263 303.161 445.113 299.126C445.948 298.225 446.806 297.373 447.687 296.497C456.666 287.746 466.977 280.73 478.166 275.755C495.793 267.809 515.069 265.086 534 267.867Z" fill="#F2F2F2"/>
<path d="M446.264 312.175H383.544C383.202 306.759 383.232 301.323 383.635 295.913C386.141 262.487 403.006 230.644 428.451 211.363C425.2 223.851 426.87 236.267 430.257 248.732C429.783 248.902 429.309 249.049 428.88 249.243C425.445 250.615 422.292 252.7 419.6 255.378C418.855 256.133 418.065 257.228 418.449 258.275C418.787 259.152 419.804 259.444 420.684 259.639C422.806 260.077 424.929 260.515 427.028 260.929C428.722 261.294 430.415 261.635 432.108 262C432.898 262.146 433.689 262.316 434.479 262.487C434.592 262.779 434.659 263.047 434.772 263.315C438.746 275.122 443.081 287.027 445.113 299.126C445.616 302.162 445.963 305.226 446.151 308.304C446.219 309.594 446.264 310.885 446.264 312.175Z" fill="#F2F2F2"/>
<path d="M104.434 275.755C104.667 287.665 103.143 299.539 99.9187 310.933C99.8057 311.347 99.6703 311.761 99.5348 312.175H33.0669C34.0171 307.13 35.5255 302.225 37.5599 297.568C43.0913 284.908 52.1222 274.075 61.0403 263.315C73.3225 248.488 85.3111 233.784 87.2076 214.503C92.076 222.506 95.9616 231.155 98.7672 240.236C95.3323 241.608 92.1799 243.692 89.488 246.37C88.7429 247.125 87.9526 248.221 88.3365 249.268C88.6977 250.144 89.6911 250.436 90.5716 250.631C92.6939 251.069 94.8162 251.507 96.9385 251.921C98.6092 252.286 100.302 252.627 101.996 252.968C103.484 260.462 104.301 268.092 104.434 275.755Z" fill="#F2F2F2"/>
<path d="M160.268 267.867C149.611 274.854 142.838 285.663 137.307 297.763C132.493 298.946 128.05 301.463 124.415 305.066C123.647 305.821 122.857 306.916 123.264 307.963C123.602 308.84 124.618 309.132 125.499 309.326C127.598 309.765 129.743 310.203 131.843 310.617C131.64 311.128 131.437 311.664 131.234 312.175H60.792C63.9897 307.525 67.5308 303.161 71.3808 299.126C72.2162 298.225 73.0741 297.373 73.9547 296.497C82.9342 287.746 93.2449 280.73 104.434 275.755C122.061 267.809 141.337 265.086 160.268 267.867Z" fill="#F2F2F2"/>
<path d="M72.5323 312.175H9.81225C9.46974 306.759 9.49996 301.323 9.90265 295.913C12.4087 262.487 29.274 230.644 54.7188 211.363C51.4676 223.851 53.1383 236.267 56.5249 248.732C56.0509 248.902 55.5767 249.049 55.1477 249.243C51.7128 250.615 48.5604 252.7 45.8685 255.378C45.1234 256.133 44.3332 257.228 44.717 258.275C45.0556 259.152 46.0716 259.444 46.9521 259.639C49.0743 260.077 51.1967 260.515 53.2963 260.929C54.9897 261.294 56.683 261.635 58.3763 262C59.1664 262.146 59.9567 262.316 60.7469 262.487C60.8597 262.779 60.9275 263.047 61.0404 263.315C65.014 275.122 69.3488 287.027 71.3809 299.126C71.8838 302.162 72.2306 305.226 72.4195 308.304C72.4872 309.594 72.5323 310.885 72.5323 312.175Z" fill="#F2F2F2"/>
<path d="M306.03 283.781L362.071 289.145L362.672 289.204V31.356C362.472 31.2055 362.271 31.0551 362.071 30.9046C350.391 22.0955 337.757 14.8587 324.449 9.3551L321.586 51.9438L321.325 55.8429L318.491 98.0783L317.618 111.071L306.133 282.276L306.03 283.781Z" fill="#E6E6E6"/>
<path d="M167.439 26.5542C167.039 26.829 166.638 27.1038 166.238 27.3916V289.204L167.439 289.087L222.874 283.781L222.771 282.276L211.286 111.071L210.412 98.0784L207.579 55.843L207.318 51.9439L204.315 7.28137C191.364 12.1221 178.987 18.5909 167.439 26.5542Z" fill="#E6E6E6"/>
<path d="M166.238 27.3916C165.431 27.9542 164.624 28.5299 163.829 29.1121V292.776C163.829 299.364 167.451 304.886 172.293 306.292C173.084 306.523 173.9 306.64 174.72 306.639H354.791C355.608 306.64 356.422 306.524 357.211 306.292C359.011 305.754 360.642 304.7 361.932 303.244C364.391 300.409 365.735 296.657 365.681 292.776V33.6981C364.686 32.9065 363.685 32.1215 362.672 31.3561C362.472 31.2056 362.271 31.0551 362.071 30.9047V292.776C362.073 293.625 361.979 294.471 361.792 295.295C360.937 299.188 358.115 302.04 354.791 302.04H174.72C170.703 302.04 167.439 297.886 167.439 292.776V26.5542C167.039 26.829 166.638 27.1037 166.238 27.3916Z" fill="#E6E6E6"/>
<path d="M363.876 51.9465H165.633V55.845H363.876V51.9465Z" fill="#E6E6E6"/>
<path d="M303.16 2.21775C301.958 1.89719 300.757 1.59625 299.544 1.31494V107.172H303.16V2.21775Z" fill="#E6E6E6"/>
<path d="M229.967 0C228.759 0.242056 227.552 0.490656 226.351 0.75888V107.172H229.967V0Z" fill="#E6E6E6"/>
<path d="M126.766 299.815C126.765 302.053 127.162 304.269 127.937 306.344C128.234 307.149 128.589 307.928 128.998 308.673C129.527 309.646 130.141 310.561 130.831 311.408C132.355 313.281 134.232 314.781 136.337 315.809C138.442 316.837 140.727 317.368 143.038 317.368H380.448C384.764 317.368 388.903 315.519 391.954 312.229C395.006 308.938 396.72 304.475 396.72 299.822C396.72 295.169 395.006 290.706 391.954 287.415C388.903 284.125 384.764 282.276 380.448 282.276H143.038C138.724 282.281 134.589 284.13 131.538 287.418C128.488 290.706 126.771 295.165 126.766 299.815Z" fill="#E6E6E6"/>
<path d="M165.633 111.072L362.671 111.072V98.0777L165.633 98.0777V111.072Z" fill="#E6E6E6"/>
<path d="M272.588 101.326H255.716C255.716 99.4308 256.414 97.6129 257.657 96.2726C258.9 94.9322 260.586 94.1792 262.344 94.1792H265.959C266.83 94.1792 267.692 94.3641 268.496 94.7232C269.3 95.0824 270.031 95.6089 270.646 96.2726C271.262 96.9362 271.75 97.7241 272.083 98.5912C272.416 99.4583 272.588 100.388 272.588 101.326H272.588Z" fill="#E6E6E6"/>
<path d="M0 309.838C5.27063 316.572 10.9714 322.9 17.0606 328.777H506.419C512.508 322.9 518.209 316.572 523.48 309.838H0Z" fill="#FF2E00"/>
<path d="M240.675 246.504V313.6H284.267V246.504C284.267 246.022 284.125 245.552 283.859 245.163C283.594 244.775 283.22 244.488 282.792 244.346C282.591 244.274 282.38 244.238 282.168 244.241H242.78C242.504 244.24 242.23 244.298 241.975 244.412C241.72 244.525 241.488 244.692 241.292 244.902C241.097 245.112 240.942 245.362 240.836 245.637C240.73 245.912 240.675 246.207 240.675 246.504ZM257.687 269.559C257.698 268.236 258.194 266.972 259.065 266.041C259.937 265.11 261.114 264.588 262.34 264.588C263.567 264.588 264.744 265.11 265.615 266.041C266.487 266.972 266.982 268.236 266.994 269.559V277.344C266.988 278.67 266.494 279.94 265.622 280.875C264.75 281.811 263.57 282.336 262.34 282.336C261.11 282.336 259.93 281.811 259.058 280.875C258.186 279.94 257.693 278.67 257.687 277.344V269.559Z" fill="#5E5D73"/>
<path d="M240.542 311.454V317.924C240.542 318.259 240.666 318.58 240.885 318.818C241.104 319.055 241.402 319.19 241.712 319.193H283.229C283.541 319.191 283.838 319.057 284.058 318.819C284.277 318.581 284.4 318.259 284.4 317.924V311.454H240.542Z" fill="#FF2E00"/>
<path d="M172.099 145.417V267.923C172.1 269.484 172.675 270.981 173.699 272.085C174.723 273.189 176.111 273.81 177.559 273.811H345.92C347.368 273.81 348.756 273.189 349.78 272.085C350.804 270.981 351.38 269.484 351.381 267.923V145.417C351.377 143.857 350.801 142.362 349.777 141.26C348.754 140.157 347.367 139.537 345.92 139.535H177.559C176.112 139.537 174.726 140.157 173.702 141.26C172.679 142.362 172.102 143.857 172.099 145.417Z" fill="#F0EFF0"/>
<path d="M176.048 146.941V266.412C176.05 267.246 176.358 268.045 176.905 268.635C177.452 269.225 178.193 269.557 178.967 269.558H344.519C345.293 269.557 346.034 269.225 346.581 268.635C347.128 268.045 347.436 267.246 347.437 266.412V146.941C347.437 146.106 347.13 145.305 346.583 144.714C346.036 144.122 345.293 143.789 344.519 143.788H178.967C178.192 143.789 177.45 144.122 176.903 144.714C176.356 145.305 176.048 146.106 176.048 146.941Z" fill="#F0EFF0"/>
<path d="M209.806 320.717C209.974 320.945 210.188 321.129 210.432 321.255C210.676 321.38 210.943 321.445 211.213 321.443H309.706C309.976 321.443 310.241 321.378 310.485 321.253C310.728 321.128 310.942 320.946 311.112 320.72C311.281 320.495 311.402 320.231 311.465 319.949C311.529 319.667 311.533 319.373 311.478 319.088L309.949 311.257C309.885 310.938 309.749 310.641 309.552 310.393C309.355 310.145 309.103 309.954 308.82 309.838C308.616 309.751 308.397 309.707 308.177 309.707H212.736C212.516 309.707 212.298 309.751 212.093 309.838C211.81 309.954 211.559 310.145 211.361 310.393C211.164 310.641 211.028 310.938 210.965 311.257L209.436 319.088C209.381 319.372 209.386 319.666 209.45 319.948C209.514 320.23 209.636 320.492 209.806 320.717Z" fill="#5E5D73"/>
<path d="M304.74 313.08H307.182C307.345 313.08 307.478 312.937 307.478 312.761V311.437C307.478 311.26 307.345 311.117 307.182 311.117H304.74C304.577 311.117 304.444 311.26 304.444 311.437V312.761C304.444 312.937 304.577 313.08 304.74 313.08Z" fill="#FF2E00"/>
<path d="M298.673 313.08H301.114C301.278 313.08 301.411 312.937 301.411 312.761V311.437C301.411 311.26 301.278 311.117 301.114 311.117H298.673C298.51 311.117 298.377 311.26 298.377 311.437V312.761C298.377 312.937 298.51 313.08 298.673 313.08Z" fill="#FF2E00"/>
<path d="M292.606 313.08H295.047C295.211 313.08 295.344 312.937 295.344 312.761V311.437C295.344 311.26 295.211 311.117 295.047 311.117H292.606C292.443 311.117 292.31 311.26 292.31 311.437V312.761C292.31 312.937 292.443 313.08 292.606 313.08Z" fill="#FF2E00"/>
<path d="M286.539 313.08H288.98C289.144 313.08 289.276 312.937 289.276 312.761V311.437C289.276 311.26 289.144 311.117 288.98 311.117H286.539C286.375 311.117 286.243 311.26 286.243 311.437V312.761C286.243 312.937 286.375 313.08 286.539 313.08Z" fill="#FF2E00"/>
<path d="M280.472 313.08H282.913C283.077 313.08 283.209 312.937 283.209 312.761V311.437C283.209 311.26 283.077 311.117 282.913 311.117H280.472C280.308 311.117 280.176 311.26 280.176 311.437V312.761C280.176 312.937 280.308 313.08 280.472 313.08Z" fill="#FF2E00"/>
<path d="M274.405 313.08H276.846C277.01 313.08 277.142 312.937 277.142 312.761V311.437C277.142 311.26 277.01 311.117 276.846 311.117H274.405C274.241 311.117 274.109 311.26 274.109 311.437V312.761C274.109 312.937 274.241 313.08 274.405 313.08Z" fill="#FF2E00"/>
<path d="M268.338 313.08H270.779C270.943 313.08 271.075 312.937 271.075 312.761V311.437C271.075 311.26 270.943 311.117 270.779 311.117H268.338C268.174 311.117 268.042 311.26 268.042 311.437V312.761C268.042 312.937 268.174 313.08 268.338 313.08Z" fill="#FF2E00"/>
<path d="M262.271 313.08H264.712C264.875 313.08 265.008 312.937 265.008 312.761V311.437C265.008 311.26 264.875 311.117 264.712 311.117H262.271C262.107 311.117 261.975 311.26 261.975 311.437V312.761C261.975 312.937 262.107 313.08 262.271 313.08Z" fill="#FF2E00"/>
<path d="M256.204 313.08H258.645C258.808 313.08 258.941 312.937 258.941 312.761V311.437C258.941 311.26 258.808 311.117 258.645 311.117H256.204C256.04 311.117 255.907 311.26 255.907 311.437V312.761C255.907 312.937 256.04 313.08 256.204 313.08Z" fill="#FF2E00"/>
<path d="M250.137 313.08H252.578C252.741 313.08 252.874 312.937 252.874 312.761V311.437C252.874 311.26 252.741 311.117 252.578 311.117H250.137C249.973 311.117 249.84 311.26 249.84 311.437V312.761C249.84 312.937 249.973 313.08 250.137 313.08Z" fill="#FF2E00"/>
<path d="M244.069 313.08H246.511C246.674 313.08 246.807 312.937 246.807 312.761V311.437C246.807 311.26 246.674 311.117 246.511 311.117H244.069C243.906 311.117 243.773 311.26 243.773 311.437V312.761C243.773 312.937 243.906 313.08 244.069 313.08Z" fill="#FF2E00"/>
<path d="M238.002 313.08H240.444C240.607 313.08 240.74 312.937 240.74 312.761V311.437C240.74 311.26 240.607 311.117 240.444 311.117H238.002C237.839 311.117 237.706 311.26 237.706 311.437V312.761C237.706 312.937 237.839 313.08 238.002 313.08Z" fill="#FF2E00"/>
<path d="M231.935 313.08H234.377C234.54 313.08 234.673 312.937 234.673 312.761V311.437C234.673 311.26 234.54 311.117 234.377 311.117H231.935C231.772 311.117 231.639 311.26 231.639 311.437V312.761C231.639 312.937 231.772 313.08 231.935 313.08Z" fill="#FF2E00"/>
<path d="M225.868 313.08H228.31C228.473 313.08 228.606 312.937 228.606 312.761V311.437C228.606 311.26 228.473 311.117 228.31 311.117H225.868C225.705 311.117 225.572 311.26 225.572 311.437V312.761C225.572 312.937 225.705 313.08 225.868 313.08Z" fill="#FF2E00"/>
<path d="M219.801 313.08H222.242C222.406 313.08 222.539 312.937 222.539 312.761V311.437C222.539 311.26 222.406 311.117 222.242 311.117H219.801C219.638 311.117 219.505 311.26 219.505 311.437V312.761C219.505 312.937 219.638 313.08 219.801 313.08Z" fill="#FF2E00"/>
<path d="M213.734 313.08H216.175C216.339 313.08 216.471 312.937 216.471 312.761V311.437C216.471 311.26 216.339 311.117 216.175 311.117H213.734C213.57 311.117 213.438 311.26 213.438 311.437V312.761C213.438 312.937 213.57 313.08 213.734 313.08Z" fill="#FF2E00"/>
<path d="M304.812 316.351H307.253C307.417 316.351 307.549 316.208 307.549 316.032V314.708C307.549 314.531 307.417 314.388 307.253 314.388H304.812C304.648 314.388 304.516 314.531 304.516 314.708V316.032C304.516 316.208 304.648 316.351 304.812 316.351Z" fill="#FF2E00"/>
<path d="M298.745 316.351H301.186C301.35 316.351 301.482 316.208 301.482 316.032V314.708C301.482 314.531 301.35 314.388 301.186 314.388H298.745C298.581 314.388 298.449 314.531 298.449 314.708V316.032C298.449 316.208 298.581 316.351 298.745 316.351Z" fill="#FF2E00"/>
<path d="M292.678 316.351H295.119C295.283 316.351 295.415 316.208 295.415 316.032V314.708C295.415 314.531 295.283 314.388 295.119 314.388H292.678C292.514 314.388 292.382 314.531 292.382 314.708V316.032C292.382 316.208 292.514 316.351 292.678 316.351Z" fill="#FF2E00"/>
<path d="M286.611 316.351H289.052C289.216 316.351 289.348 316.208 289.348 316.032V314.708C289.348 314.531 289.216 314.388 289.052 314.388H286.611C286.447 314.388 286.315 314.531 286.315 314.708V316.032C286.315 316.208 286.447 316.351 286.611 316.351Z" fill="#FF2E00"/>
<path d="M280.544 316.351H282.985C283.148 316.351 283.281 316.208 283.281 316.032V314.708C283.281 314.531 283.148 314.388 282.985 314.388H280.544C280.38 314.388 280.247 314.531 280.247 314.708V316.032C280.247 316.208 280.38 316.351 280.544 316.351Z" fill="#FF2E00"/>
<path d="M274.477 316.351H276.918C277.081 316.351 277.214 316.208 277.214 316.032V314.708C277.214 314.531 277.081 314.388 276.918 314.388H274.477C274.313 314.388 274.181 314.531 274.181 314.708V316.032C274.181 316.208 274.313 316.351 274.477 316.351Z" fill="#FF2E00"/>
<path d="M268.41 316.351H270.851C271.014 316.351 271.147 316.208 271.147 316.032V314.708C271.147 314.531 271.014 314.388 270.851 314.388H268.41C268.246 314.388 268.113 314.531 268.113 314.708V316.032C268.113 316.208 268.246 316.351 268.41 316.351Z" fill="#FF2E00"/>
<path d="M262.342 316.351H264.784C264.947 316.351 265.08 316.208 265.08 316.032V314.708C265.08 314.531 264.947 314.388 264.784 314.388H262.342C262.179 314.388 262.046 314.531 262.046 314.708V316.032C262.046 316.208 262.179 316.351 262.342 316.351Z" fill="#FF2E00"/>
<path d="M256.275 316.351H258.716C258.88 316.351 259.013 316.208 259.013 316.032V314.708C259.013 314.531 258.88 314.388 258.716 314.388H256.275C256.112 314.388 255.979 314.531 255.979 314.708V316.032C255.979 316.208 256.112 316.351 256.275 316.351Z" fill="#FF2E00"/>
<path d="M250.208 316.351H252.65C252.813 316.351 252.946 316.208 252.946 316.032V314.708C252.946 314.531 252.813 314.388 252.65 314.388H250.208C250.045 314.388 249.912 314.531 249.912 314.708V316.032C249.912 316.208 250.045 316.351 250.208 316.351Z" fill="#FF2E00"/>
<path d="M244.141 316.351H246.582C246.746 316.351 246.879 316.208 246.879 316.032V314.708C246.879 314.531 246.746 314.388 246.582 314.388H244.141C243.978 314.388 243.845 314.531 243.845 314.708V316.032C243.845 316.208 243.978 316.351 244.141 316.351Z" fill="#FF2E00"/>
<path d="M238.074 316.351H240.515C240.679 316.351 240.812 316.208 240.812 316.032V314.708C240.812 314.531 240.679 314.388 240.515 314.388H238.074C237.911 314.388 237.778 314.531 237.778 314.708V316.032C237.778 316.208 237.911 316.351 238.074 316.351Z" fill="#FF2E00"/>
<path d="M232.007 316.351H234.448C234.612 316.351 234.744 316.208 234.744 316.032V314.708C234.744 314.531 234.612 314.388 234.448 314.388H232.007C231.843 314.388 231.711 314.531 231.711 314.708V316.032C231.711 316.208 231.843 316.351 232.007 316.351Z" fill="#FF2E00"/>
<path d="M225.94 316.351H228.381C228.545 316.351 228.677 316.208 228.677 316.032V314.708C228.677 314.531 228.545 314.388 228.381 314.388H225.94C225.776 314.388 225.644 314.531 225.644 314.708V316.032C225.644 316.208 225.776 316.351 225.94 316.351Z" fill="#FF2E00"/>
<path d="M219.873 316.351H222.314C222.478 316.351 222.61 316.208 222.61 316.032V314.708C222.61 314.531 222.478 314.388 222.314 314.388H219.873C219.709 314.388 219.577 314.531 219.577 314.708V316.032C219.577 316.208 219.709 316.351 219.873 316.351Z" fill="#FF2E00"/>
<path d="M213.806 316.351H216.247C216.411 316.351 216.543 316.208 216.543 316.032V314.708C216.543 314.531 216.411 314.388 216.247 314.388H213.806C213.642 314.388 213.51 314.531 213.51 314.708V316.032C213.51 316.208 213.642 316.351 213.806 316.351Z" fill="#FF2E00"/>
<path d="M254.455 320.276H278.131C278.295 320.276 278.427 320.133 278.427 319.957V318.633C278.427 318.457 278.295 318.314 278.131 318.314H254.455C254.292 318.314 254.159 318.457 254.159 318.633V319.957C254.159 320.133 254.292 320.276 254.455 320.276Z" fill="#FF2E00"/>
<path d="M187.286 160.245H342.192C342.353 160.241 342.507 160.17 342.619 160.046C342.732 159.921 342.795 159.755 342.795 159.581C342.795 159.407 342.732 159.241 342.619 159.116C342.507 158.992 342.353 158.921 342.192 158.917H187.286C187.125 158.921 186.971 158.992 186.859 159.116C186.746 159.241 186.683 159.407 186.683 159.581C186.683 159.755 186.746 159.921 186.859 160.046C186.971 160.17 187.125 160.241 187.286 160.245Z" fill="#F0EFF0"/>
<path d="M331.648 155.525C333.642 155.525 335.258 153.744 335.258 151.546C335.258 149.348 333.642 147.566 331.648 147.566C329.654 147.566 328.038 149.348 328.038 151.546C328.038 153.744 329.654 155.525 331.648 155.525Z" fill="#F0EFF0"/>
<path d="M319.176 155.525C321.17 155.525 322.786 153.744 322.786 151.546C322.786 149.348 321.17 147.566 319.176 147.566C317.182 147.566 315.566 149.348 315.566 151.546C315.566 153.744 317.182 155.525 319.176 155.525Z" fill="#F0EFF0"/>
<path d="M306.705 155.525C308.699 155.525 310.315 153.744 310.315 151.546C310.315 149.348 308.699 147.566 306.705 147.566C304.711 147.566 303.094 149.348 303.094 151.546C303.094 153.744 304.711 155.525 306.705 155.525Z" fill="#F0EFF0"/>
<path d="M194.134 149.276C194.134 149.371 194.151 149.464 194.184 149.551C194.217 149.638 194.265 149.717 194.327 149.784C194.388 149.851 194.461 149.904 194.542 149.94C194.622 149.977 194.708 149.996 194.796 149.996H203.654C203.829 149.992 203.995 149.914 204.118 149.779C204.24 149.643 204.309 149.462 204.309 149.273C204.309 149.084 204.24 148.903 204.118 148.768C203.995 148.633 203.829 148.555 203.654 148.55H194.796C194.619 148.553 194.45 148.63 194.326 148.766C194.202 148.902 194.133 149.086 194.134 149.276Z" fill="#F0EFF0"/>
<path d="M194.134 151.991C194.134 152.086 194.151 152.179 194.184 152.266C194.217 152.353 194.265 152.432 194.327 152.499C194.388 152.566 194.461 152.619 194.542 152.655C194.622 152.692 194.708 152.711 194.796 152.711H203.654C203.829 152.707 203.996 152.629 204.118 152.494C204.241 152.359 204.309 152.177 204.309 151.988C204.309 151.799 204.241 151.618 204.118 151.483C203.996 151.347 203.829 151.269 203.654 151.265H194.796C194.619 151.268 194.45 151.345 194.326 151.481C194.202 151.617 194.133 151.801 194.134 151.991Z" fill="#F0EFF0"/>
<path d="M194.134 154.7C194.133 154.891 194.202 155.074 194.326 155.21C194.45 155.346 194.619 155.424 194.796 155.426H203.654C203.829 155.422 203.995 155.344 204.118 155.208C204.24 155.073 204.309 154.892 204.309 154.703C204.309 154.514 204.24 154.333 204.118 154.198C203.995 154.063 203.829 153.985 203.654 153.98H194.796C194.708 153.981 194.622 154 194.542 154.036C194.461 154.072 194.388 154.125 194.327 154.192C194.265 154.259 194.217 154.338 194.184 154.425C194.151 154.513 194.134 154.606 194.134 154.7Z" fill="#F0EFF0"/>
<path d="M196.872 175.682H193.689C192.724 175.682 191.942 176.526 191.942 177.566C191.942 178.607 192.724 179.45 193.689 179.45H196.872C197.837 179.45 198.619 178.607 198.619 177.566C198.619 176.526 197.837 175.682 196.872 175.682Z" fill="#F0EFF0"/>
<path d="M233.274 175.682H230.092C229.127 175.682 228.344 176.526 228.344 177.566C228.344 178.607 229.127 179.45 230.092 179.45H233.274C234.239 179.45 235.022 178.607 235.022 177.566C235.022 176.526 234.239 175.682 233.274 175.682Z" fill="#F0EFF0"/>
<path d="M243.588 175.682H240.405C239.44 175.682 238.658 176.526 238.658 177.566C238.658 178.607 239.44 179.45 240.405 179.45H243.588C244.553 179.45 245.336 178.607 245.336 177.566C245.336 176.526 244.553 175.682 243.588 175.682Z" fill="#F0EFF0"/>
<path d="M223.373 175.368H203.591C202.626 175.368 201.843 176.212 201.843 177.252C201.843 178.293 202.626 179.136 203.591 179.136H223.373C224.338 179.136 225.12 178.293 225.12 177.252C225.12 176.212 224.338 175.368 223.373 175.368Z" fill="#F0EFF0"/>
<path d="M271.909 175.368H252.127C251.162 175.368 250.38 176.212 250.38 177.252C250.38 178.293 251.162 179.136 252.127 179.136H271.909C272.874 179.136 273.657 178.293 273.657 177.252C273.657 176.212 272.874 175.368 271.909 175.368Z" fill="#F0EFF0"/>
<path d="M206.579 184.187H203.396C202.431 184.187 201.649 185.031 201.649 186.071C201.649 187.112 202.431 187.955 203.396 187.955H206.579C207.544 187.955 208.326 187.112 208.326 186.071C208.326 185.031 207.544 184.187 206.579 184.187Z" fill="#F0EFF0"/>
<path d="M242.982 184.187H239.799C238.834 184.187 238.052 185.031 238.052 186.071C238.052 187.112 238.834 187.955 239.799 187.955H242.982C243.947 187.955 244.729 187.112 244.729 186.071C244.729 185.031 243.947 184.187 242.982 184.187Z" fill="#F0EFF0"/>
<path d="M253.296 184.187H250.113C249.148 184.187 248.365 185.031 248.365 186.071C248.365 187.112 249.148 187.955 250.113 187.955H253.296C254.261 187.955 255.043 187.112 255.043 186.071C255.043 185.031 254.261 184.187 253.296 184.187Z" fill="#F0EFF0"/>
<path d="M233.08 183.873H213.298C212.333 183.873 211.551 184.716 211.551 185.757C211.551 186.797 212.333 187.641 213.298 187.641H233.08C234.045 187.641 234.827 186.797 234.827 185.757C234.827 184.716 234.045 183.873 233.08 183.873Z" fill="#F0EFF0"/>
<path d="M281.617 183.873H261.834C260.869 183.873 260.087 184.716 260.087 185.757C260.087 186.797 260.869 187.641 261.834 187.641H281.617C282.582 187.641 283.364 186.797 283.364 185.757C283.364 184.716 282.582 183.873 281.617 183.873Z" fill="#F0EFF0"/>
<path d="M216.287 192.692H213.104C212.139 192.692 211.356 193.535 211.356 194.576C211.356 195.616 212.139 196.46 213.104 196.46H216.287C217.252 196.46 218.034 195.616 218.034 194.576C218.034 193.535 217.252 192.692 216.287 192.692Z" fill="#F0EFF0"/>
<path d="M252.689 192.692H249.506C248.541 192.692 247.759 193.535 247.759 194.576C247.759 195.616 248.541 196.46 249.506 196.46H252.689C253.654 196.46 254.436 195.616 254.436 194.576C254.436 193.535 253.654 192.692 252.689 192.692Z" fill="#F0EFF0"/>
<path d="M263.003 192.692H259.82C258.855 192.692 258.073 193.535 258.073 194.576C258.073 195.616 258.855 196.46 259.82 196.46H263.003C263.968 196.46 264.75 195.616 264.75 194.576C264.75 193.535 263.968 192.692 263.003 192.692Z" fill="#F0EFF0"/>
<path d="M242.787 192.377H223.005C222.04 192.377 221.258 193.221 221.258 194.262C221.258 195.302 222.04 196.146 223.005 196.146H242.787C243.752 196.146 244.535 195.302 244.535 194.262C244.535 193.221 243.752 192.377 242.787 192.377Z" fill="#F0EFF0"/>
<path d="M291.324 192.377H271.542C270.577 192.377 269.794 193.221 269.794 194.262C269.794 195.302 270.577 196.146 271.542 196.146H291.324C292.289 196.146 293.071 195.302 293.071 194.262C293.071 193.221 292.289 192.377 291.324 192.377Z" fill="#F0EFF0"/>
<path d="M225.994 201.196H222.811C221.846 201.196 221.064 202.04 221.064 203.08C221.064 204.121 221.846 204.964 222.811 204.964H225.994C226.959 204.964 227.741 204.121 227.741 203.08C227.741 202.04 226.959 201.196 225.994 201.196Z" fill="#F0EFF0"/>
<path d="M262.396 201.196H259.213C258.248 201.196 257.466 202.04 257.466 203.08C257.466 204.121 258.248 204.964 259.213 204.964H262.396C263.361 204.964 264.144 204.121 264.144 203.08C264.144 202.04 263.361 201.196 262.396 201.196Z" fill="#F0EFF0"/>
<path d="M272.71 201.196H269.528C268.563 201.196 267.78 202.04 267.78 203.08C267.78 204.121 268.563 204.964 269.528 204.964H272.71C273.676 204.964 274.458 204.121 274.458 203.08C274.458 202.04 273.676 201.196 272.71 201.196Z" fill="#F0EFF0"/>
<path d="M252.495 200.882H232.713C231.748 200.882 230.965 201.726 230.965 202.766C230.965 203.807 231.748 204.65 232.713 204.65H252.495C253.46 204.65 254.242 203.807 254.242 202.766C254.242 201.726 253.46 200.882 252.495 200.882Z" fill="#F0EFF0"/>
<path d="M233.274 235.014H230.092C229.127 235.014 228.344 235.858 228.344 236.899C228.344 237.939 229.127 238.783 230.092 238.783H233.274C234.239 238.783 235.022 237.939 235.022 236.899C235.022 235.858 234.239 235.014 233.274 235.014Z" fill="#F0EFF0"/>
<path d="M243.588 235.014H240.405C239.44 235.014 238.658 235.858 238.658 236.899C238.658 237.939 239.44 238.783 240.405 238.783H243.588C244.553 238.783 245.336 237.939 245.336 236.899C245.336 235.858 244.553 235.014 243.588 235.014Z" fill="#F0EFF0"/>
<path d="M271.909 235.328H252.127C251.162 235.328 250.38 236.172 250.38 237.213C250.38 238.253 251.162 239.097 252.127 239.097H271.909C272.874 239.097 273.657 238.253 273.657 237.213C273.657 236.172 272.874 235.328 271.909 235.328Z" fill="#F0EFF0"/>
<path d="M196.872 235.014H193.689C192.724 235.014 191.942 235.858 191.942 236.899C191.942 237.939 192.724 238.783 193.689 238.783H196.872C197.837 238.783 198.619 237.939 198.619 236.899C198.619 235.858 197.837 235.014 196.872 235.014Z" fill="#F0EFF0"/>
<path d="M223.373 235.328H203.591C202.626 235.328 201.843 236.172 201.843 237.213C201.843 238.253 202.626 239.097 203.591 239.097H223.373C224.338 239.097 225.12 238.253 225.12 237.213C225.12 236.172 224.338 235.328 223.373 235.328Z" fill="#F0EFF0"/>
<path d="M206.579 226.51H203.396C202.431 226.51 201.649 227.353 201.649 228.394C201.649 229.434 202.431 230.278 203.396 230.278H206.579C207.544 230.278 208.326 229.434 208.326 228.394C208.326 227.353 207.544 226.51 206.579 226.51Z" fill="#F0EFF0"/>
<path d="M242.982 226.51H239.799C238.834 226.51 238.052 227.353 238.052 228.394C238.052 229.434 238.834 230.278 239.799 230.278H242.982C243.947 230.278 244.729 229.434 244.729 228.394C244.729 227.353 243.947 226.51 242.982 226.51Z" fill="#F0EFF0"/>
<path d="M253.296 226.51H250.113C249.148 226.51 248.365 227.353 248.365 228.394C248.365 229.434 249.148 230.278 250.113 230.278H253.296C254.261 230.278 255.043 229.434 255.043 228.394C255.043 227.353 254.261 226.51 253.296 226.51Z" fill="#F0EFF0"/>
<path d="M233.08 226.824H213.298C212.333 226.824 211.551 227.667 211.551 228.708C211.551 229.749 212.333 230.592 213.298 230.592H233.08C234.045 230.592 234.827 229.749 234.827 228.708C234.827 227.667 234.045 226.824 233.08 226.824Z" fill="#F0EFF0"/>
<path d="M216.287 218.005H213.104C212.139 218.005 211.356 218.849 211.356 219.889C211.356 220.93 212.139 221.773 213.104 221.773H216.287C217.252 221.773 218.034 220.93 218.034 219.889C218.034 218.849 217.252 218.005 216.287 218.005Z" fill="#F0EFF0"/>
<path d="M252.689 218.005H249.506C248.541 218.005 247.759 218.849 247.759 219.889C247.759 220.93 248.541 221.773 249.506 221.773H252.689C253.654 221.773 254.436 220.93 254.436 219.889C254.436 218.849 253.654 218.005 252.689 218.005Z" fill="#F0EFF0"/>
<path d="M263.003 218.005H259.82C258.855 218.005 258.073 218.849 258.073 219.889C258.073 220.93 258.855 221.773 259.82 221.773H263.003C263.968 221.773 264.75 220.93 264.75 219.889C264.75 218.849 263.968 218.005 263.003 218.005Z" fill="#F0EFF0"/>
<path d="M242.787 218.319H223.005C222.04 218.319 221.258 219.163 221.258 220.203C221.258 221.244 222.04 222.087 223.005 222.087H242.787C243.752 222.087 244.535 221.244 244.535 220.203C244.535 219.163 243.752 218.319 242.787 218.319Z" fill="#F0EFF0"/>
<path d="M225.994 209.5H222.811C221.846 209.5 221.064 210.344 221.064 211.385C221.064 212.425 221.846 213.269 222.811 213.269H225.994C226.959 213.269 227.741 212.425 227.741 211.385C227.741 210.344 226.959 209.5 225.994 209.5Z" fill="#F0EFF0"/>
<path d="M262.396 209.5H259.213C258.248 209.5 257.466 210.344 257.466 211.385C257.466 212.425 258.248 213.269 259.213 213.269H262.396C263.361 213.269 264.144 212.425 264.144 211.385C264.144 210.344 263.361 209.5 262.396 209.5Z" fill="#F0EFF0"/>
<path d="M272.71 209.5H269.528C268.563 209.5 267.78 210.344 267.78 211.385C267.78 212.425 268.563 213.269 269.528 213.269H272.71C273.676 213.269 274.458 212.425 274.458 211.385C274.458 210.344 273.676 209.5 272.71 209.5Z" fill="#F0EFF0"/>
<path d="M252.495 209.815H232.713C231.748 209.815 230.965 210.658 230.965 211.699C230.965 212.739 231.748 213.583 232.713 213.583H252.495C253.46 213.583 254.242 212.739 254.242 211.699C254.242 210.658 253.46 209.815 252.495 209.815Z" fill="#F0EFF0"/>
<path d="M212.294 357.165C212.161 357.237 212.027 357.308 211.894 357.374C211.05 357.825 210.201 358.27 209.346 358.708C206.785 360.023 204.193 361.273 201.568 362.457C194.661 365.572 187.574 368.201 180.351 370.327C179.138 362.169 177.961 342.929 176.832 328.779C176.62 326.116 176.407 323.636 176.195 321.445C175.993 318.568 175.61 315.709 175.048 312.888C174.993 312.667 174.914 312.454 174.812 312.253C174.927 313.385 175.048 316.761 175.164 321.445C175.224 323.637 175.279 326.116 175.34 328.779C175.625 342.399 175.922 360.933 176.219 371.485C175.376 371.707 174.527 371.93 173.677 372.139C173.143 372.277 172.603 372.407 172.063 372.532C171.408 372.689 170.753 372.846 170.098 372.99C169.412 373.147 168.727 373.297 168.041 373.441C156.837 375.814 145.446 377.006 134.029 377C133.271 377 132.518 376.993 131.76 376.987C131.529 376.987 131.299 376.98 131.062 376.974C130.395 376.961 129.703 376.948 128.999 376.928C115.507 376.526 102.102 374.442 89.0537 370.72L89.5815 328.779L89.6725 321.445L89.7089 318.665C89.4084 319.559 89.2285 320.495 89.175 321.445C88.9626 323.231 88.7442 325.763 88.5258 328.779C87.6946 340.397 86.8392 359.14 85.9534 369.804C75.4634 366.585 67.7946 363.648 58.2086 358.479C57.8385 358.283 57.4624 358.08 57.0923 357.878C57.159 357.374 57.2318 356.87 57.2986 356.353C58.3846 348.215 57.1044 337.623 58.3057 328.779C59.2218 321.955 60.1683 315.4 61.1208 309.839C62.2736 303.147 63.4445 297.887 64.6033 295.329C65.9381 292.379 67.2729 289.474 68.5651 286.694C69.1233 285.496 69.6714 284.321 70.2093 283.167C70.5005 282.546 70.7917 281.931 71.0769 281.329C72.3753 278.588 73.6008 276.056 74.7232 273.812C75.5119 272.236 76.24 270.809 76.9074 269.56C77.69 268.088 78.3817 266.871 78.952 265.949C83.1644 259.064 89.432 253.937 96.7164 251.419L96.8984 251.366L97.0743 251.445L97.2745 251.543L108.838 246.983L114.001 233.579L140.521 231.819L144.804 235.332L146.994 237.131L149.33 239.048L153.626 242.574L154.845 242.98L156.659 243.581L169.066 247.69L169.194 247.631L169.376 247.683C176.004 249.971 181.807 254.43 185.975 260.44C186.388 261.016 186.77 261.611 187.14 262.213C188.147 263.823 189.506 266.367 191.108 269.56C191.769 270.875 192.467 272.301 193.201 273.812C193.644 274.722 197.466 287.583 201.185 300.72C204.662 313.019 208.047 325.56 208.49 328.779C208.569 329.374 208.654 329.976 208.733 330.571C209.236 334.293 209.734 338.042 210.213 341.699C210.923 347.122 211.615 352.356 212.276 357.034C212.282 357.079 212.288 357.119 212.294 357.165Z" fill="#FF2E00"/>
<path opacity="0.2" d="M184.19 309.809L179.035 288.356L174.483 306.868L184.19 309.809Z" fill="black"/>
<path d="M9.60366 309.56C9.87095 310.4 10.378 311.126 11.052 311.635C11.726 312.144 12.5322 312.41 13.355 312.394L29.4278 311.948C30.2566 311.93 31.0579 311.624 31.7119 311.075C32.366 310.526 32.8376 309.763 33.0564 308.901L35.3309 282.676C36.1379 283.07 37.0163 283.265 37.9021 283.245C39.4562 283.203 40.9311 282.497 42.0025 281.283C43.0738 280.068 43.6538 278.444 43.6147 276.768C43.5757 275.093 42.921 273.502 41.7944 272.347C40.6679 271.192 39.162 270.566 37.6079 270.608C37.2539 270.607 36.9007 270.647 36.5545 270.727C36.178 270.287 35.7204 269.938 35.2111 269.701C34.7018 269.464 34.1521 269.345 33.5974 269.351L8.87375 270.039C8.66866 270.047 8.46461 270.075 8.26389 270.121C7.7217 270.23 7.20746 270.463 6.75577 270.804C6.30408 271.145 5.92541 271.587 5.64528 272.099C5.36515 272.612 5.19004 273.183 5.13174 273.774C5.07344 274.365 5.13331 274.963 5.3073 275.528L9.60366 309.56ZM35.7973 280.895L37.4158 274.646C37.5999 273.924 37.6042 273.162 37.4282 272.438C37.5067 272.438 37.576 272.398 37.6545 272.397C38.7642 272.373 39.8378 272.823 40.6398 273.651C41.4418 274.478 41.9067 275.615 41.9327 276.812C41.9587 278.008 41.5436 279.167 40.7784 280.034C40.0132 280.901 38.9604 281.405 37.8508 281.437C37.1334 281.461 36.4234 281.274 35.7973 280.895Z" fill="#5E5D73"/>
<path d="M8.26392 270.121C8.79065 273.368 14.7127 275.651 21.8334 275.255C28.3815 274.929 33.7355 272.45 34.7164 269.512C34.3534 269.396 33.9759 269.342 33.5974 269.351L8.87377 270.039C8.66868 270.047 8.46463 270.075 8.26392 270.121Z" fill="#FF2E00"/>
<path d="M23.1386 295.149C23.1711 295.14 23.2021 295.126 23.2301 295.106L26.7206 292.642C26.7628 292.613 26.7975 292.572 26.8215 292.524C26.8455 292.477 26.8581 292.423 26.8581 292.369C26.8581 292.315 26.8456 292.261 26.8216 292.213C26.7976 292.166 26.763 292.125 26.7208 292.095L23.0928 289.533C23.0595 289.509 23.0222 289.493 22.983 289.485C22.9438 289.477 22.9035 289.477 22.8644 289.485C22.8253 289.494 22.7881 289.511 22.7551 289.535C22.7221 289.559 22.6938 289.59 22.6719 289.626C22.65 289.662 22.635 289.703 22.6276 289.745C22.6202 289.787 22.6206 289.831 22.6288 289.873C22.637 289.915 22.6529 289.955 22.6755 289.991C22.698 290.026 22.7269 290.056 22.7604 290.08L26.0008 292.368L22.8981 294.559C22.838 294.601 22.7938 294.665 22.7733 294.739C22.7529 294.813 22.7575 294.893 22.7863 294.964C22.8152 295.035 22.8664 295.092 22.9309 295.126C22.9954 295.16 23.0689 295.168 23.1385 295.149H23.1386Z" fill="#F0EFF0"/>
<path d="M17.6255 295.424C17.684 295.408 17.7369 295.373 17.7771 295.325C17.8174 295.276 17.8433 295.216 17.8516 295.151C17.8598 295.086 17.8499 295.021 17.8233 294.962C17.7966 294.904 17.7544 294.855 17.702 294.823L14.4846 292.834L17.5943 290.343C17.6262 290.317 17.6532 290.285 17.6736 290.248C17.6941 290.212 17.7076 290.171 17.7134 290.128C17.7192 290.086 17.7172 290.043 17.7075 290.001C17.6978 289.959 17.6805 289.92 17.6568 289.886C17.6331 289.851 17.6033 289.822 17.5691 289.8C17.5349 289.778 17.4971 289.764 17.4577 289.757C17.4183 289.751 17.3782 289.753 17.3396 289.764C17.301 289.774 17.2646 289.793 17.2327 289.818L13.751 292.607C13.7106 292.639 13.6782 292.682 13.6569 292.731C13.6356 292.78 13.626 292.835 13.6289 292.889C13.6319 292.943 13.6473 292.995 13.6739 293.042C13.7004 293.088 13.7372 293.126 13.7809 293.153L17.4 295.39C17.4683 295.432 17.5492 295.444 17.6255 295.424Z" fill="#F0EFF0"/>
<path d="M22.7913 297.308C22.8207 297.3 22.8487 297.288 22.8744 297.27C22.9085 297.248 22.9382 297.219 22.9617 297.184C22.9852 297.149 23.0022 297.11 23.0117 297.068C23.0211 297.027 23.0228 296.983 23.0167 296.941C23.0106 296.898 22.9968 296.858 22.976 296.821L18.0281 288.049C17.986 287.975 17.9186 287.923 17.8405 287.902C17.7625 287.882 17.6802 287.896 17.6117 287.941C17.5431 287.986 17.4939 288.059 17.4748 288.143C17.4557 288.227 17.4682 288.315 17.5097 288.39L22.4576 297.161C22.4914 297.221 22.542 297.268 22.6021 297.294C22.6621 297.32 22.7284 297.325 22.7913 297.308Z" fill="#F0EFF0"/>
<path d="M476.356 357.876C475.986 358.079 475.61 358.282 475.24 358.478C465.654 363.646 457.985 366.584 447.495 369.802C446.609 359.139 445.754 340.396 444.922 328.777C444.704 325.761 444.486 323.229 444.273 321.443C444.22 320.494 444.04 319.557 443.739 318.663L443.776 321.443L443.867 328.777L444.395 370.718C431.346 374.441 417.942 376.524 404.449 376.927C403.745 376.946 403.054 376.959 402.386 376.972C402.15 376.979 401.919 376.985 401.688 376.985C400.93 376.992 400.178 376.998 399.419 376.998C385.201 377.01 371.033 375.158 357.229 371.484C357.526 360.931 357.823 342.398 358.109 328.777C358.169 326.114 358.224 323.635 358.285 321.443C358.4 316.759 358.521 313.384 358.636 312.252C358.534 312.452 358.455 312.665 358.4 312.886C357.838 315.707 357.455 318.566 357.253 321.443C357.041 323.635 356.828 326.114 356.616 328.777C355.488 342.928 354.311 362.168 353.097 370.326C345.875 368.199 338.788 365.571 331.881 362.456C328.24 360.82 324.665 359.056 321.154 357.163C321.821 352.453 322.519 347.173 323.235 341.698C323.793 337.452 324.37 333.088 324.958 328.777C325.868 322.117 356.786 250.201 364.073 247.682L364.255 247.629L364.382 247.688L376.789 243.58L378.603 242.978L379.823 242.573L384.118 239.046L386.454 237.13L388.644 235.33L392.928 231.817L419.447 233.577L424.61 246.982L436.174 251.542L436.374 251.444L436.55 251.365L436.732 251.417C444.016 253.936 450.284 259.062 454.496 265.947C455.067 266.87 455.758 268.086 456.541 269.558C457.208 270.808 457.936 272.234 458.725 273.811C459.847 276.055 461.073 278.587 462.371 281.328C462.656 281.929 462.948 282.544 463.239 283.166C463.779 284.317 464.327 285.493 464.883 286.692C466.175 289.472 467.51 292.377 468.845 295.328C470.004 297.885 471.175 303.145 472.327 309.838C473.28 315.399 474.226 321.954 475.143 328.777C476.344 337.622 475.064 348.213 476.15 356.352C476.216 356.869 476.289 357.372 476.356 357.876Z" fill="#FF2E00"/>
<path d="M398.579 227.006C415.613 227.006 429.422 212.116 429.422 193.748C429.422 175.381 415.613 160.491 398.579 160.491C381.545 160.491 367.736 175.381 367.736 193.748C367.736 212.116 381.545 227.006 398.579 227.006Z" fill="#FFB6B6"/>
<path opacity="0.2" d="M349.257 309.809L354.412 288.356L358.964 306.868L349.257 309.809Z" fill="black"/>
<path d="M486.439 295.831C484.595 323.23 486.506 335.293 476.326 357.883C467.063 362.771 457.414 366.76 447.495 369.802C446.464 370.116 445.43 370.422 444.395 370.718C431.346 374.441 417.942 376.524 404.449 376.927C403.745 376.946 403.054 376.959 402.386 376.972C402.15 376.979 401.919 376.985 401.688 376.985C400.93 376.992 400.178 376.999 399.419 376.999C385.201 377.01 371.033 375.158 357.229 371.484C355.846 371.117 354.468 370.731 353.097 370.326C345.875 368.2 338.788 365.571 331.881 362.456C328.24 360.82 324.665 359.056 321.154 357.163C320.359 356.731 319.565 356.3 318.782 355.855C314.759 348.227 312.472 338.95 312.424 327.802C315.208 308.595 480.287 279.267 486.439 295.831Z" fill="#5E5D73"/>
<path opacity="0.2" d="M486.435 300.523C486.529 298.827 486.634 297.075 486.757 295.251C480.605 278.686 315.526 308.014 312.741 327.222C312.749 328.983 312.819 330.692 312.936 332.36C319.68 313.402 476.507 285.528 486.435 300.523Z" fill="black"/>
<path d="M308.318 297.124L321.868 289.818L310.576 256.944L307.601 240.365C307.214 238.211 306.31 236.204 304.979 234.545C303.647 232.886 301.936 231.633 300.015 230.911C298.093 230.188 296.03 230.022 294.031 230.429C292.031 230.836 290.166 231.802 288.621 233.229C286.332 235.345 284.895 238.337 284.613 241.574C284.331 244.811 285.226 248.039 287.109 250.578L298.156 265.467L308.318 297.124Z" fill="#FFB6B6"/>
<path d="M321.868 283.73L303.802 293.471L317.512 339.794C318.497 343.121 320.262 346.117 322.636 348.491C325.01 350.866 327.913 352.538 331.063 353.347C334.948 354.344 339.026 353.982 342.706 352.312C346.386 350.642 349.478 347.751 351.532 344.059L387.889 276.864C390.466 272.233 391.261 266.7 390.105 261.446C388.949 256.192 385.934 251.634 381.703 248.744C379.428 247.191 376.875 246.171 374.21 245.751C371.544 245.332 368.827 245.522 366.235 246.31C363.643 247.098 361.233 248.465 359.163 250.323C357.094 252.182 355.41 254.489 354.222 257.095L332.031 308.082L321.868 283.73Z" fill="#FF2E00"/>
<path d="M127.11 224.711C145.852 224.711 161.046 208.327 161.046 188.118C161.046 167.908 145.852 151.525 127.11 151.525C108.367 151.525 93.1736 167.908 93.1736 188.118C93.1736 208.327 108.367 224.711 127.11 224.711Z" fill="#A0616A"/>
<path d="M93.5812 162.901C96.3405 158.891 100.306 156.04 103.34 152.267C105.004 150.197 106.386 147.851 108.258 145.998C111.734 142.555 116.596 141.144 121.314 140.969C126.485 140.825 131.614 141.997 136.286 144.388C140.959 146.779 145.044 150.323 148.21 154.732C150.676 153.173 153.142 151.614 155.608 150.055C156.583 152.82 157.557 155.585 158.531 158.35C159.331 157.601 160.35 157.181 161.41 157.165C162.469 157.149 163.499 157.538 164.318 158.262C165.137 158.987 165.691 160.001 165.883 161.125C166.074 162.248 165.891 163.409 165.365 164.4C165.952 162.445 168.64 162.03 170.123 163.322C171.605 164.613 172.002 166.912 171.76 168.95C171.457 171.187 170.54 173.274 169.127 174.945C167.715 176.615 165.871 177.791 163.834 178.323C160.616 179.096 156.87 178.284 154.295 180.503C152.23 182.282 151.607 185.522 149.499 187.242C146.903 189.362 143.232 188.381 140.004 188.85C134.357 189.669 129.886 195.898 130.564 201.998C130.053 200.073 129.516 198.092 128.357 196.529C127.197 194.965 125.244 193.908 123.465 194.482C120.525 195.433 120.044 199.754 120.757 202.973C122.647 211.51 129.808 225.31 129.808 225.31C120.509 229.265 109.43 225.525 102.255 218.02C95.0796 210.514 91.3427 199.886 89.7149 189.25C88.3345 180.232 88.5301 170.242 93.5812 162.901Z" fill="#5E5D73"/>
<path d="M437.231 212.082C443.687 196.12 440.03 181.432 432.159 173.64V173.634C429.065 166.156 424.951 160.386 420.243 159.032C417.968 157.455 415.76 155.604 413.309 154.662C412.167 154.201 410.95 153.994 409.733 154.054C408.515 154.113 407.321 154.438 406.222 155.009L404.972 154.649C403.911 151.725 402.667 151.666 401.284 153.589C395.957 150.913 391.158 149.716 386.886 149.716C372.956 149.716 364.717 162.434 362.533 177.808L374.176 181.151L378.223 174.197L376.354 181.779L382.779 183.617C392.559 197.349 380.856 229.025 366.022 246.65C369.553 245.596 373.07 244.707 376.572 243.981L389.301 223.857L381.414 242.175C385.509 241.527 390.733 242.149 396.442 243.398C398.365 240.69 399.379 237.079 398.384 233.86C400.01 237.255 401.132 240.904 401.708 244.674C413.758 247.847 430.193 249.476 439.051 250.68C446.208 248.161 446.227 219.71 437.231 212.082Z" fill="#5E5D73"/>
<path d="M441.432 157.788C446.161 169.206 436.618 174.117 427.877 173.978C419.978 173.853 413.265 167.87 412.862 159.363C412.668 155.277 413.988 151.277 416.53 148.24C419.072 145.204 422.628 143.381 426.417 143.172C434.306 142.737 438.21 150.01 441.432 157.788Z" fill="#5E5D73"/>
<path d="M222.044 343.66L214.254 329.649L240.155 308.461L250.925 296.201C252.324 294.608 254.086 293.439 256.035 292.81C257.985 292.182 260.053 292.116 262.033 292.62C264.013 293.123 265.836 294.179 267.32 295.68C268.804 297.181 269.896 299.076 270.488 301.175C271.365 304.285 271.086 307.642 269.712 310.535C268.338 313.429 265.974 315.633 263.121 316.684L246.386 322.844L222.044 343.66Z" fill="#A0616A"/>
<path d="M227.674 343.197L215.546 354.096L212.276 357.034L211.894 357.374C211.051 357.825 210.201 358.27 209.346 358.708C206.785 360.023 204.193 361.273 201.568 362.457C194.661 365.572 187.574 368.201 180.351 370.327C178.98 370.733 177.603 371.119 176.22 371.485C175.376 371.707 174.527 371.93 173.677 372.139C173.144 372.277 172.604 372.407 172.064 372.532C171.408 372.689 170.753 372.846 170.098 372.99C169.412 373.147 168.727 373.297 168.041 373.441C166.196 371.548 164.728 369.271 163.724 366.747C162.721 364.224 162.204 361.506 162.205 358.761C162.205 358.584 162.205 358.401 162.211 358.218L164.158 304.357L165.02 280.485C165.152 275.087 167.238 269.958 170.831 266.196C174.423 262.433 179.238 260.335 184.246 260.349C184.829 260.349 185.405 260.381 185.975 260.44C186.388 261.016 186.77 261.611 187.14 262.213C188.147 263.823 189.506 266.367 191.108 269.56C191.769 270.875 192.467 272.301 193.201 273.812C193.644 274.722 197.466 287.583 201.186 300.72L199.547 314.438L196.587 339.167L208.733 330.571L217.288 324.513L218.301 326.338L220.94 331.088L226.036 340.247L227.674 343.197Z" fill="#FF2E00"/>
<path d="M221.025 327.804C221.019 328.916 220.994 330.009 220.94 331.088C220.813 334.066 220.493 337.03 219.981 339.959C219.144 344.878 217.65 349.64 215.546 354.096C215.267 354.692 214.97 355.281 214.666 355.856C213.884 356.301 213.089 356.733 212.294 357.165C212.161 357.237 212.027 357.309 211.894 357.374C208.514 359.186 205.072 360.881 201.568 362.457C194.661 365.572 187.574 368.201 180.351 370.327C178.98 370.733 177.603 371.119 176.219 371.485C173.52 372.205 170.793 372.857 168.041 373.441C156.837 375.814 145.446 377.006 134.029 377C133.271 377 132.518 376.994 131.76 376.987C131.529 376.987 131.299 376.98 131.062 376.974C130.395 376.961 129.703 376.948 128.999 376.928C115.507 376.526 102.102 374.443 89.0536 370.72C88.0162 370.425 86.9827 370.12 85.9534 369.804C76.0339 366.762 66.3855 362.773 57.1226 357.884C46.942 335.295 48.8532 323.231 47.0088 295.833C50.7946 285.634 114.845 292.837 164.158 304.357C177.542 307.484 189.834 310.932 199.547 314.438C209.582 318.056 216.857 321.733 219.708 325.187C220.374 325.902 220.832 326.812 221.025 327.804Z" fill="#5E5D73"/>
<path opacity="0.2" d="M47.0125 300.523C46.9183 298.827 46.813 297.075 46.6902 295.251C52.8422 278.686 217.921 308.014 220.706 327.222C220.698 328.983 220.629 330.692 220.511 332.36C213.767 313.402 56.9399 285.528 47.0125 300.523Z" fill="black"/>
</g>
<defs>
<clipPath id="clip0_50_185">
<rect width="534" height="377" fill="white"/>
</clipPath>
</defs>
</svg>
