<svg width="642" height="424" viewBox="0 0 642 424" fill="none" xmlns="http://www.w3.org/2000/svg">
<path d="M370.559 340.639C369.06 340.639 367.595 341.126 366.349 342.038C365.103 342.95 364.132 344.246 363.558 345.763C362.985 347.279 362.835 348.948 363.127 350.558C363.419 352.167 364.141 353.646 365.201 354.807C366.261 355.967 367.611 356.758 369.081 357.078C370.551 357.398 372.074 357.234 373.459 356.606C374.844 355.978 376.027 354.914 376.86 353.549C377.692 352.184 378.137 350.58 378.137 348.939C378.137 346.737 377.338 344.627 375.917 343.07C374.496 341.514 372.569 340.639 370.559 340.639ZM370.559 354.046C369.637 354.046 368.735 353.746 367.968 353.185C367.201 352.624 366.604 351.826 366.251 350.893C365.898 349.96 365.805 348.933 365.985 347.942C366.165 346.951 366.609 346.041 367.262 345.327C367.914 344.613 368.745 344.126 369.649 343.929C370.554 343.732 371.492 343.833 372.344 344.22C373.196 344.607 373.924 345.261 374.437 346.101C374.949 346.941 375.222 347.928 375.222 348.939V348.939C375.222 350.293 374.731 351.592 373.857 352.55C372.982 353.508 371.796 354.046 370.559 354.046V354.046Z" fill="#E4E4E4"/>
<path d="M341.414 334.255H370.559V365.847C370.559 366.95 370.159 368.008 369.447 368.788C368.735 369.567 367.77 370.005 366.763 370.005H345.211C344.204 370.005 343.238 369.567 342.526 368.788C341.814 368.008 341.414 366.95 341.414 365.847V334.255V334.255Z" fill="#E4E4E4"/>
<path d="M438.657 370.728H0.591102C0.428645 370.709 0.278485 370.624 0.169404 370.491C0.0603229 370.358 0 370.185 0 370.006C0 369.827 0.0603229 369.654 0.169404 369.521C0.278485 369.388 0.428645 369.303 0.591102 369.284H438.657C438.819 369.303 438.969 369.388 439.078 369.521C439.188 369.654 439.248 369.827 439.248 370.006C439.248 370.185 439.188 370.358 439.078 370.491C438.969 370.624 438.819 370.709 438.657 370.728V370.728Z" fill="#CACACA"/>
<path d="M58.9661 357.084L56.2568 371.756L106.638 390.185L110.637 368.53L58.9661 357.084Z" fill="#FFB6B6"/>
<path d="M64.0309 354.311L58.6947 383.205L58.6945 383.206C57.7922 388.089 55.1557 392.38 51.365 395.135C47.5743 397.889 42.9398 398.882 38.4809 397.894L37.9346 397.773L46.6715 350.466L64.0309 354.311Z" fill="#E5E5E5"/>
<path d="M116.059 154.991C134.952 154.991 150.268 138.217 150.268 117.525C150.268 96.8336 134.952 80.0596 116.059 80.0596C97.1655 80.0596 81.8496 96.8336 81.8496 117.525C81.8496 138.217 97.1655 154.991 116.059 154.991Z" fill="#FEB8B8"/>
<path d="M148.01 85.203C142.896 76.1071 134.89 69.4048 125.534 66.386L121.334 69.7425V65.3842C119.087 65.0075 116.813 64.8625 114.541 64.9508L110.918 68.5413V65.2491C105.553 65.9792 100.385 67.9188 95.7386 70.9454C91.0925 73.9721 87.0694 78.0203 83.923 82.8346C76.0545 95.2579 74.7262 112.542 82.4655 125.065C84.5897 117.914 87.1684 111.205 89.2933 104.055C90.9631 104.304 92.6554 104.313 94.3273 104.081L96.9119 97.4761L97.634 103.802C105.646 103.038 117.529 101.359 125.123 99.8213L124.385 94.9683L128.803 99.0008C131.13 98.4143 132.512 97.882 132.398 97.4754C138.046 107.449 144.959 113.819 150.607 123.792C152.753 109.729 155.222 98.0358 148.01 85.203Z" fill="#1D1B1D"/>
<path d="M127.19 362.693C175.837 362.693 215.273 350.612 215.273 335.709C215.273 320.806 175.837 308.725 127.19 308.725C78.5426 308.725 39.1064 320.806 39.1064 335.709C39.1064 350.612 78.5426 362.693 127.19 362.693Z" fill="#2F2E41"/>
<path d="M189.633 213.87C188.457 206.119 187.243 198.219 183.954 191.237C181.792 186.663 178.361 182.305 173.735 181.401C172.824 181.312 171.928 181.085 171.074 180.726C169.719 180.011 151.505 168.623 148.61 166.64C146.124 164.937 142.2 161.785 140.221 161.785C138.231 161.737 130.599 163.682 100.809 161.132C95.7987 163.335 90.9463 165.948 86.2937 168.948C86.1977 168.879 55.375 187.006 54.217 186.959C52.024 186.858 49.9856 188.395 48.7284 190.332C47.4716 192.268 46.882 194.665 46.2646 196.983C52.9968 213.403 59.1565 229.844 65.8893 246.263C66.2046 246.882 66.3721 247.578 66.3762 248.286C66.2409 249.021 65.9545 249.713 65.5387 250.308C62.237 256.117 62.342 263.423 62.7026 270.25C63.0636 277.077 63.5099 284.288 60.7241 290.407C59.9664 292.087 58.981 293.625 58.2603 295.305C56.5726 299.11 55.9627 311.28 56.9484 315.368L180.451 319.243C177.796 311.249 189.633 213.87 189.633 213.87Z" fill="#E5E5E5"/>
<path d="M35.5892 246.991C35.3428 248.944 35.318 250.922 35.5153 252.881L37.2855 280.722C37.4516 283.346 37.6152 285.964 37.8401 288.581C38.2648 293.661 38.8992 298.701 39.6867 303.733C39.7045 304.447 39.9804 305.125 40.4538 305.617C40.9272 306.109 41.5595 306.375 42.2119 306.357C50.0039 308.163 58.0545 308.09 66.0068 307.598C78.1416 306.857 109.187 305.453 111.084 302.755C112.98 300.056 111.875 295.692 109.402 293.51C106.929 291.328 65.9599 286.008 65.9599 286.008C66.3603 282.534 67.5678 279.262 68.7134 275.963C70.771 270.113 72.6928 264.07 72.7297 257.803C72.7667 251.535 70.6107 244.946 65.923 241.355C62.0669 238.408 57.1022 237.861 52.4032 237.982C48.9844 238.09 43.0772 237.193 39.9545 238.657C37.4833 239.849 36.0509 244.341 35.5892 246.991Z" fill="#FBBEBE"/>
<path d="M189.852 309.926C191.903 309.07 194.164 309.38 196.362 309.704C203.44 310.763 210.622 311.849 217.182 314.946C220.262 316.39 223.194 318.319 225.276 321.157C227.123 323.714 228.202 326.844 229.225 329.927L231.59 337.024C232.596 339.69 233.289 342.485 233.654 345.342C234.393 353.836 229.09 361.843 222.419 366.255C215.748 370.668 207.894 372.239 200.244 373.885C192.593 375.531 184.912 377.352 177.293 379.282C173.739 380.292 170.133 381.069 166.495 381.609C158.339 382.62 149.815 381.13 142.066 384.085C138.986 385.266 135.961 387.02 132.767 387.836C130.643 388.325 128.496 388.683 126.336 388.908L111.67 390.743C108.687 391.18 105.685 391.432 102.677 391.499C96.271 391.499 89.9695 389.837 83.749 388.176C83.0881 388.049 82.4589 387.771 81.9024 387.36C80.9171 386.51 80.7015 385.005 80.5597 383.643C79.9314 377.612 79.3818 371.574 78.9109 365.53C78.7632 363.567 78.6524 361.442 79.6318 359.789C80.8637 357.767 83.2663 357.131 85.4591 356.74C94.7576 355.074 104.177 354.358 113.597 354.601C117.175 350.682 123.076 350.662 127.764 348.53C129.489 347.662 131.158 346.668 132.76 345.555C141.145 340.197 150.515 336.954 160.189 336.063C162.083 336 163.965 335.706 165.8 335.186C169.428 333.952 172.736 330.592 176.463 331.415C176.924 330.019 177.245 328.15 178.309 327.192C178.837 326.699 179.492 326.369 179.978 325.843C181.007 324.703 181.1 322.908 180.945 321.316C180.791 319.724 180.446 318.092 180.822 316.54C180.978 315.952 181.208 315.391 181.506 314.873C183.347 311.383 186.137 309.589 189.852 309.926Z" fill="#1D1B1D"/>
<path d="M45.9082 197.483C45.3083 198.171 44.843 198.986 44.5411 199.878C39.5621 212.168 36.6212 225.33 35.8561 238.749C35.8695 239.403 35.7318 240.051 35.4558 240.631C35.1835 241.017 34.8805 241.376 34.5503 241.704C34.2623 242.077 34.0445 242.51 33.9091 242.976C33.7737 243.442 33.7234 243.932 33.7612 244.42C33.799 244.907 33.924 245.381 34.1292 245.816C34.3343 246.25 34.6156 246.636 34.9569 246.951C35.0129 247.003 35.0704 247.053 35.1293 247.101C36.1456 245.006 38.5785 244.321 40.741 244.139C51.0952 243.242 61.2093 248.518 71.5945 248.12C70.8618 245.347 69.8079 242.682 69.2104 239.876C66.5678 227.416 73.1588 213.85 69.1181 201.849C68.3108 199.447 66.9622 197.086 64.8372 196.033C63.9574 195.645 63.0366 195.378 62.0963 195.239C59.4722 194.72 54.2483 192.5 51.7112 193.391C50.7747 193.721 50.4054 194.686 49.6291 195.269C48.4499 196.093 46.8856 196.397 45.9082 197.483Z" fill="#E5E5E5"/>
<path d="M189.707 238.657C186.584 237.193 180.677 238.09 177.258 237.982C172.559 237.861 167.594 238.408 163.738 241.355C159.051 244.946 156.895 251.535 156.932 257.803C156.968 264.07 158.89 270.113 160.948 275.963C162.093 279.262 163.301 282.534 163.701 286.008C163.701 286.008 122.732 291.328 120.259 293.51C117.786 295.692 116.681 300.056 118.578 302.755C120.474 305.453 179.657 308.163 187.449 306.357C188.102 306.375 188.734 306.109 189.207 305.617C189.681 305.125 189.957 304.447 189.975 303.733C190.762 298.701 191.396 293.661 191.821 288.581C192.046 285.964 192.21 283.346 192.376 280.722L194.146 252.881C194.343 250.922 194.319 248.944 194.072 246.991C193.61 244.341 192.178 239.849 189.707 238.657Z" fill="#FBBEBE"/>
<path d="M180.032 195.269C179.256 194.686 178.886 193.721 177.95 193.391C175.413 192.5 170.189 194.72 167.565 195.239C166.624 195.378 165.704 195.645 164.824 196.033C162.699 197.086 161.35 199.447 160.543 201.849C156.502 213.85 163.093 227.416 160.45 239.876C159.853 242.682 158.799 245.347 158.066 248.12C168.452 248.518 178.566 243.242 188.92 244.139C191.082 244.321 193.515 245.006 194.532 247.101C194.59 247.053 194.648 247.003 194.704 246.951C195.045 246.636 195.327 246.25 195.532 245.816C195.737 245.381 195.862 244.907 195.9 244.42C195.937 243.932 195.887 243.442 195.752 242.976C195.616 242.51 195.399 242.077 195.111 241.704C194.78 241.376 194.477 241.017 194.205 240.631C193.929 240.051 193.791 239.403 193.805 238.749C193.04 225.33 190.099 212.168 185.12 199.878C184.818 198.986 184.353 198.171 183.753 197.483C182.775 196.397 181.211 196.093 180.032 195.269Z" fill="#E5E5E5"/>
<path d="M197.351 378.028L195.551 392.866L142.436 392.321L145.093 370.421L197.351 378.028Z" fill="#FFB6B6"/>
<path d="M210.944 376.156L205.138 424L204.585 423.92C200.075 423.263 195.989 420.672 193.224 416.715C190.459 412.759 189.242 407.762 189.841 402.823L189.841 402.822L193.387 373.6L210.944 376.156Z" fill="#E5E5E5"/>
<path d="M72.3931 317.435C72.3931 318.11 71.4263 317.435 71.3379 316.713C70.6606 311.255 66.7056 306.755 62.0983 304.57C57.491 302.384 52.2427 302.269 47.2536 302.789C39.7082 303.571 31.2382 306.735 28.4788 314.459C27.8259 316.265 21.7097 332.343 22.3066 335.959C23.9144 345.606 29.9383 353.856 37.2377 359.57C44.5371 365.284 53.0657 368.698 61.5733 371.777C84.0664 379.902 107.144 385.938 130.562 389.823C134.356 390.45 138.188 391.03 141.822 392.366C145.074 393.56 148.117 395.347 151.295 396.751C158.687 400.001 166.639 401.163 174.517 402.303C175.86 402.492 177.4 402.627 178.392 401.628C179.673 400.328 179.249 398.06 178.884 396.191C177.547 389.086 178.669 381.69 182.032 375.441C183.351 373.012 185.066 370.522 184.816 367.712C184.521 364.434 181.539 362.113 178.57 361.586C175.601 361.06 172.583 361.836 169.601 362.261C168.579 362.518 167.508 362.402 166.552 361.93C166.109 361.603 165.707 361.213 165.357 360.77C163.303 358.6 160.675 357.199 157.849 356.766C155.022 356.333 152.144 356.892 149.625 358.362C148.523 359.037 146.856 357.532 145.708 356.966L132.754 350.543C117.872 343.17 102.917 335.763 87.1726 331.094C85.9163 330.824 84.7224 330.28 83.6614 329.495C82.8792 328.821 82.3186 327.906 81.5978 327.154C80.0269 325.528 77.8386 324.881 75.9558 323.727C74.0729 322.574 71.9618 319.749 72.3931 317.435Z" fill="#1D1B1D"/>
<path d="M105.927 307.686C111.027 307.686 115.16 303.159 115.16 297.574C115.16 291.99 111.027 287.462 105.927 287.462C100.828 287.462 96.6943 291.99 96.6943 297.574C96.6943 303.159 100.828 307.686 105.927 307.686Z" fill="#FBBEBE"/>
<path d="M126.372 307.686C131.471 307.686 135.605 303.159 135.605 297.574C135.605 291.99 131.471 287.462 126.372 287.462C121.272 287.462 117.139 291.99 117.139 297.574C117.139 303.159 121.272 307.686 126.372 307.686Z" fill="#FBBEBE"/>
<path d="M183.365 320.361H56.5168C55.0358 320.359 53.616 319.714 52.5688 318.567C51.5215 317.42 50.9324 315.865 50.9307 314.243V229.962C50.9324 228.34 51.5215 226.785 52.5688 225.638C53.616 224.491 55.0358 223.846 56.5168 223.844H183.365C184.846 223.846 186.265 224.491 187.313 225.638C188.36 226.785 188.949 228.34 188.951 229.962V314.243C188.949 315.865 188.36 317.42 187.313 318.567C186.265 319.714 184.846 320.359 183.365 320.361Z" fill="#FF2E00"/>
<path d="M119.633 276.15C121.675 276.15 123.329 274.338 123.329 272.102C123.329 269.867 121.675 268.055 119.633 268.055C117.592 268.055 115.938 269.867 115.938 272.102C115.938 274.338 117.592 276.15 119.633 276.15Z" fill="white"/>
<path d="M572.468 152.007H407.663C406.788 152.006 405.95 151.625 405.332 150.948C404.714 150.271 404.366 149.353 404.365 148.395V114.376H405.684V148.395C405.685 148.97 405.893 149.521 406.264 149.927C406.635 150.333 407.138 150.562 407.663 150.562H572.468C572.992 150.562 573.495 150.333 573.866 149.927C574.237 149.521 574.446 148.97 574.446 148.395V114.138H575.765V148.395C575.764 149.353 575.416 150.271 574.798 150.948C574.18 151.625 573.342 152.006 572.468 152.007V152.007Z" fill="#FF2E00"/>
<path d="M632.21 113.653H244.938V115.098H632.21V113.653Z" fill="#FF2E00"/>
<path d="M244.965 126.688C251.23 126.688 256.31 121.125 256.31 114.263C256.31 107.401 251.23 101.838 244.965 101.838C238.699 101.838 233.62 107.401 233.62 114.263C233.62 121.125 238.699 126.688 244.965 126.688Z" fill="#E5E5E5"/>
<path d="M360.249 126.688C366.515 126.688 371.594 121.125 371.594 114.263C371.594 107.401 366.515 101.838 360.249 101.838C353.983 101.838 348.904 107.401 348.904 114.263C348.904 121.125 353.983 126.688 360.249 126.688Z" fill="#E5E5E5"/>
<path d="M438.487 163.207C444.753 163.207 449.832 157.644 449.832 150.782C449.832 143.92 444.753 138.357 438.487 138.357C432.222 138.357 427.143 143.92 427.143 150.782C427.143 157.644 432.222 163.207 438.487 163.207Z" fill="#FF2E00"/>
<path d="M497.966 163.207C504.231 163.207 509.311 157.644 509.311 150.782C509.311 143.92 504.231 138.357 497.966 138.357C491.7 138.357 486.621 143.92 486.621 150.782C486.621 157.644 491.7 163.207 497.966 163.207Z" fill="#CCCCCC"/>
<path d="M469.144 126.688C475.409 126.688 480.488 121.125 480.488 114.263C480.488 107.401 475.409 101.838 469.144 101.838C462.878 101.838 457.799 107.401 457.799 114.263C457.799 121.125 462.878 126.688 469.144 126.688Z" fill="#E5E5E5"/>
<path d="M630.655 126.688C636.921 126.688 642 121.125 642 114.263C642 107.401 636.921 101.838 630.655 101.838C624.39 101.838 619.311 107.401 619.311 114.263C619.311 121.125 624.39 126.688 630.655 126.688Z" fill="#E5E5E5"/>
<path d="M575.106 126.688C581.371 126.688 586.45 121.125 586.45 114.263C586.45 107.401 581.371 101.838 575.106 101.838C568.84 101.838 563.761 107.401 563.761 114.263C563.761 121.125 568.84 126.688 575.106 126.688Z" fill="#E5E5E5"/>
<path d="M448.755 0H427.713V15.883H448.755V0Z" fill="#FF2E00"/>
<path d="M255.57 0H234.527V15.883H255.57V0Z" fill="#E5E5E5"/>
<path d="M326.843 0H305.801V15.883H326.843V0Z" fill="#CCCCCC"/>
<path d="M280.145 115.098C279.97 115.098 279.802 115.022 279.679 114.886C279.555 114.751 279.485 114.567 279.485 114.375V78.7218C279.486 77.7643 279.834 76.8464 280.452 76.1693C281.07 75.4923 281.909 75.1114 282.783 75.1104H314.884C315.059 75.1104 315.227 75.1865 315.35 75.3219C315.474 75.4574 315.543 75.6411 315.543 75.8326C315.543 76.0242 315.474 76.2079 315.35 76.3434C315.227 76.4788 315.059 76.5549 314.884 76.5549H282.783C282.258 76.5556 281.755 76.784 281.384 77.1903C281.014 77.5965 280.805 78.1473 280.804 78.7218V114.375C280.804 114.567 280.735 114.751 280.611 114.886C280.488 115.022 280.32 115.098 280.145 115.098V115.098Z" fill="#FF2E00"/>
<path d="M316.393 87.9874C322.658 87.9874 327.737 82.4247 327.737 75.5626C327.737 68.7006 322.658 63.1379 316.393 63.1379C310.127 63.1379 305.048 68.7006 305.048 75.5626C305.048 82.4247 310.127 87.9874 316.393 87.9874Z" fill="#E6E6E6"/>
<path d="M534.053 114.375H532.734V78.7218C532.735 77.7643 533.083 76.8464 533.701 76.1693C534.32 75.4923 535.158 75.1114 536.032 75.1104H568.133V76.5549H536.032C535.507 76.5556 535.004 76.784 534.634 77.1903C534.263 77.5965 534.054 78.1473 534.053 78.7218V114.375Z" fill="#FF2E00"/>
<path d="M569.642 87.9874C575.907 87.9874 580.986 82.4247 580.986 75.5626C580.986 68.7006 575.907 63.1379 569.642 63.1379C563.376 63.1379 558.297 68.7006 558.297 75.5626C558.297 82.4247 563.376 87.9874 569.642 87.9874Z" fill="#E6E6E6"/>
</svg>
