<svg width="268" height="323" viewBox="0 0 268 323" fill="none" xmlns="http://www.w3.org/2000/svg">
<path opacity="0.5" d="M150.265 0H33.5162C15.0057 0 0 13.3638 0 29.849V67.439C0 83.9241 15.0057 97.2879 33.5162 97.2879H150.265C168.776 97.2879 183.782 83.9241 183.782 67.439V29.849C183.782 13.3638 168.776 0 150.265 0Z" fill="#566573"/>
<path d="M91.741 76.2064C106.525 76.2064 118.509 65.5331 118.509 52.367C118.509 39.2009 106.525 28.5276 91.741 28.5276C76.9573 28.5276 64.9727 39.2009 64.9727 52.367C64.9727 65.5331 76.9573 76.2064 91.741 76.2064Z" fill="#FEB8B8"/>
<path d="M97.6106 76.0712C94.3237 69.5451 112.13 56.0052 100.721 55.3185C100.721 55.3185 93.221 43.608 88.4586 46.7475C82.9443 50.3828 74.9094 43.7803 70.1888 39.3629C71.1935 38.6412 72.0948 37.8123 72.8726 36.8949C71.3723 37.1401 69.8531 37.2819 68.3283 37.319C67.7623 36.5732 67.3666 35.7357 67.1636 34.8539C66.9422 34.0196 67.0127 33.145 67.3657 32.3474C67.7187 31.5499 68.3374 30.8676 69.1385 30.3923C70.8684 29.5336 73.0783 30.0581 74.9269 29.4422C75.1578 29.3419 75.3579 29.1932 75.51 29.0089C75.6622 28.8246 75.7618 28.6102 75.8005 28.3841C75.9391 27.8518 76.2079 27.3534 76.5876 26.9242C76.9673 26.495 77.4486 26.1457 77.9973 25.9012C78.5459 25.6566 79.1483 25.5228 79.7617 25.5093C80.375 25.4958 80.9841 25.6029 81.5456 25.8231C81.7598 25.9313 82.0006 25.991 82.2468 25.9967C83.5356 25.9237 84.8101 25.7143 86.0432 25.3728C84.6594 24.7965 83.3269 24.1271 82.0574 23.3705C81.7965 23.2127 81.5355 23.0549 81.2799 22.888C82.4294 22.0563 83.767 21.4557 85.2013 21.127C86.6355 20.7983 88.1326 20.7495 89.59 20.9838C92.6463 21.5133 95.5923 22.4605 98.3235 23.7917C99.9421 24.4942 101.557 25.195 103.169 25.8942C106.649 27.2583 109.956 28.9465 113.037 30.9307C116.25 33.1802 118.866 36.034 120.698 39.2881C122.53 42.5423 123.532 46.1165 123.633 49.7556C123.78 57.0157 116.806 76.9108 97.6106 76.0712Z" fill="#1D1B1D"/>
<path d="M31.4775 24.5102C36.2415 24.5102 40.1035 21.0708 40.1035 16.8281C40.1035 12.5854 36.2415 9.146 31.4775 9.146C26.7136 9.146 22.8516 12.5854 22.8516 16.8281C22.8516 21.0708 26.7136 24.5102 31.4775 24.5102Z" fill="#15742F"/>
<path d="M30.3009 20.8264C30.152 20.8264 30.0051 20.7955 29.8719 20.7361C29.7387 20.6768 29.6228 20.5906 29.5334 20.4845L27.1801 17.69C27.1035 17.6003 27.0476 17.498 27.0156 17.389C26.9836 17.28 26.9761 17.1664 26.9936 17.0547C27.0111 16.9431 27.0532 16.8357 27.1175 16.7386C27.1818 16.6416 27.267 16.5568 27.3682 16.4892C27.4695 16.4216 27.5847 16.3724 27.7073 16.3447C27.8299 16.3169 27.9576 16.311 28.0828 16.3273C28.208 16.3436 28.3283 16.3818 28.4369 16.4397C28.5454 16.4976 28.64 16.574 28.7153 16.6647L30.255 18.4927L34.2092 13.2104C34.3504 13.0218 34.5698 12.8909 34.8194 12.8464C35.0689 12.802 35.3281 12.8476 35.5398 12.9733C35.7516 13.0991 35.8986 13.2945 35.9485 13.5168C35.9984 13.739 35.9471 13.9698 35.806 14.1584L31.0994 20.4458C31.0143 20.5595 30.8997 20.6534 30.7655 20.7196C30.6312 20.7857 30.481 20.8222 30.3276 20.8261L30.3009 20.8264Z" fill="white"/>
<path d="M155.546 28.611C153.861 28.611 152.215 28.1662 150.814 27.3328C149.414 26.4994 148.322 25.3148 147.678 23.9289C147.033 22.543 146.864 21.018 147.193 19.5468C147.522 18.0755 148.333 16.7241 149.524 15.6634C150.715 14.6026 152.232 13.8803 153.884 13.5876C155.536 13.295 157.249 13.4452 158.805 14.0192C160.361 14.5933 161.691 15.5654 162.627 16.8127C163.563 18.06 164.062 19.5264 164.062 21.0265C164.062 23.038 163.165 24.9672 161.568 26.3895C159.971 27.8119 157.804 28.611 155.546 28.611Z" fill="#FF2E00"/>
<path d="M158.516 22.6136L156.734 21.0265L158.516 19.4394C158.595 19.3701 158.658 19.2876 158.7 19.1966C158.743 19.1057 158.766 19.0081 158.766 18.9094C158.766 18.8108 158.745 18.7131 158.702 18.6219C158.66 18.5307 158.598 18.4478 158.52 18.3781C158.442 18.3083 158.348 18.2531 158.246 18.2155C158.144 18.1779 158.034 18.1586 157.923 18.1589C157.812 18.1592 157.703 18.1791 157.601 18.2173C157.499 18.2554 157.406 18.3112 157.328 18.3814L155.546 19.9684L153.764 18.3814C153.606 18.2417 153.393 18.1635 153.17 18.1637C152.948 18.164 152.735 18.2428 152.578 18.3829C152.42 18.5229 152.332 18.7128 152.332 18.9108C152.331 19.1089 152.419 19.299 152.576 19.4394L154.358 21.0265L152.576 22.6136C152.497 22.6829 152.435 22.7654 152.392 22.8564C152.349 22.9473 152.327 23.0449 152.326 23.1436C152.326 23.2422 152.347 23.3399 152.39 23.4311C152.432 23.5223 152.494 23.6052 152.572 23.6749C152.651 23.7447 152.744 23.7999 152.846 23.8375C152.948 23.8751 153.058 23.8943 153.169 23.894C153.28 23.8937 153.389 23.8739 153.491 23.8357C153.593 23.7976 153.686 23.7418 153.764 23.6716L155.546 22.0845L157.328 23.6716C157.406 23.7414 157.499 23.7969 157.601 23.8347C157.703 23.8726 157.812 23.8921 157.923 23.8923C158.033 23.8924 158.143 23.8731 158.245 23.8355C158.347 23.7979 158.44 23.7427 158.518 23.6731C158.596 23.6035 158.658 23.5209 158.7 23.43C158.742 23.339 158.764 23.2415 158.764 23.1431C158.764 23.0446 158.742 22.9472 158.699 22.8563C158.657 22.7655 158.595 22.683 158.516 22.6136Z" fill="white"/>
<path d="M181.129 310.39C175.391 311.078 169.375 312.033 164.723 316.272C164.041 316.884 163.389 317.648 163.265 318.679C163.048 320.932 165.529 321.849 167.39 321.925C200.791 323.224 234.192 323.339 267.593 322.307C268.027 319.481 265.454 317.495 263.283 316.54C237.511 304.967 207.924 307.182 181.129 310.39Z" fill="url(#paint0_linear_140_234)"/>
<path d="M181.131 310.39C175.393 311.077 169.377 312.033 164.725 316.272C164.042 316.883 163.391 317.647 163.267 318.679C163.05 320.932 165.531 321.849 167.392 321.925C200.793 323.224 234.194 323.338 267.595 322.307C268.029 319.481 265.455 317.495 263.285 316.54C237.513 304.966 207.926 307.182 181.131 310.39Z" fill="url(#paint1_linear_140_234)"/>
<path d="M162.646 254.93C160.63 260.086 161.529 268.222 162.429 275.288C163.111 280.597 164.29 286.25 167.701 289.573C169.624 291.445 172.012 292.362 174.4 293.087C185.316 296.334 196.946 295.876 207.646 291.789C209.786 290.948 211.957 289.955 213.724 288.275C216.547 285.563 218.066 281.285 219.183 277.083C220.702 271.354 224.455 258.444 219.803 255.274C215.709 252.485 202.56 255.923 197.66 255.885C193.938 255.885 190.216 255.808 186.557 254.739C182.37 253.555 178.276 251.072 174.059 250.117C167.546 248.628 164.228 250.881 162.646 254.93Z" fill="#2F3F47"/>
<path d="M189.261 300.536C189.292 300.077 189.323 299.619 189.354 299.123C186.129 296.411 180.453 297.289 177.042 298.664C173.382 300.115 173.382 302.942 173.413 307.602C173.444 310.237 173.63 313.255 175.274 314.935C176.546 316.272 178.344 316.425 179.988 316.578C181.477 316.692 182.965 316.807 184.454 316.883C185.477 316.96 186.625 316.998 187.431 316.158C188.238 315.317 188.362 313.866 188.455 312.605C188.734 308.595 188.982 304.585 189.261 300.536Z" fill="#2F3F47"/>
<path d="M192.237 300.536C192.206 300.077 192.176 299.619 192.145 299.123C195.37 296.411 201.045 297.289 204.457 298.664C208.116 300.115 208.116 302.942 208.085 307.602C208.054 310.237 207.868 313.255 206.224 314.935C204.953 316.272 203.154 316.425 201.51 316.578C200.022 316.692 198.533 316.807 197.044 316.883C196.021 316.96 194.874 316.998 194.067 316.158C193.261 315.317 193.137 313.866 193.044 312.605C192.765 308.595 192.517 304.585 192.237 300.536Z" fill="#2F3F47"/>
<path d="M114.112 108.984C114.205 109.939 114.298 110.932 114.019 111.849C113.802 112.575 113.367 113.148 112.933 113.721C111.103 116.051 109.118 118.228 106.979 120.137C104.56 119.717 102.203 118.915 99.9696 117.693C99.5664 117.464 99.1323 117.197 98.8532 116.738C98.6361 116.395 98.5741 115.936 98.5121 115.516C97.6747 110.627 96.8374 105.7 96 100.811C97.2405 99.7792 98.605 98.939 100.001 98.2897C100.559 101.231 101.117 104.21 101.675 107.151C102.202 109.978 103.071 113.262 105.335 114.065C106.7 112.613 108.064 111.123 109.429 109.672C109.677 109.405 109.894 109.137 110.049 108.794C110.204 108.373 110.142 107.877 110.08 107.38C109.739 104.516 109.211 101.651 108.498 98.8625C109.646 98.5951 110.762 98.3279 111.91 98.0605C113.336 101.384 113.739 105.241 114.112 108.984Z" fill="#2F3F47"/>
<path d="M103.507 120.214C103.476 120.367 103.507 120.52 103.538 120.672C103.879 122.429 104.22 124.186 104.562 125.943C106.794 125.294 108.996 124.416 111.136 123.384C110.919 121.857 110.578 120.367 110.113 118.954C110.02 118.648 109.865 118.304 109.616 118.19C109.461 118.113 109.275 118.151 109.12 118.19C107.353 118.572 105.616 119.106 103.941 119.794C103.755 119.909 103.569 120.023 103.507 120.214Z" fill="#2F3F47"/>
<path d="M103.968 127.624C103.751 130.87 107.38 136.867 108.496 139.541C109.985 143.169 111.473 146.836 113.582 149.93C115.691 153.062 118.482 155.621 121.708 156.461C123.538 156.92 125.429 156.805 127.29 156.5C132.872 155.621 138.3 153.138 143.014 149.319C143.386 149.013 143.789 148.67 143.944 148.135C144.099 147.6 143.944 146.989 143.789 146.416C143.2 144.239 142.611 141.833 141.711 139.846C140.13 136.332 141.122 136.944 138.579 137.211C136.625 137.402 133.834 139.923 131.756 140.572C129.337 141.298 126.825 141.68 124.375 142.062C122.824 142.291 121.087 142.482 119.785 141.412C119.072 140.801 118.575 139.923 118.11 139.006C115.319 133.659 112.776 128.12 110.543 122.429C110.171 121.436 104.464 125.561 104.092 127.127C103.999 127.28 103.968 127.433 103.968 127.624Z" fill="#516770"/>
<g opacity="0.15">
<path opacity="0.15" d="M127.262 154.399C126.083 150.885 125.556 147.371 125.401 143.628C125.37 142.902 124.564 142.788 124.471 143.552C123.943 147.562 124.471 151.649 125.618 155.431C125.99 156.806 127.696 155.774 127.262 154.399Z" fill="#272525"/>
<path opacity="0.15" d="M121.899 154.667C121.092 151.076 121.403 148.211 122.364 144.736C122.488 144.277 121.93 143.934 121.744 144.354C120.875 146.111 119.914 147.524 119.635 149.625C119.356 151.611 119.418 153.559 120.007 155.469C120.379 156.805 122.209 156.042 121.899 154.667Z" fill="#272525"/>
</g>
<path d="M150.923 124.11C146.705 126.631 145.681 133.391 145.309 139.159C142.89 174.604 143.821 210.432 148.038 245.61C148.566 249.888 149.31 254.548 152.039 257.26C153.807 259.017 156.133 259.628 158.366 260.124C181.099 265.243 204.575 265.281 227.308 260.239C228.052 260.086 228.859 259.895 229.479 259.284C230.316 258.482 230.627 257.145 230.875 255.885C239.031 216.581 237.108 175.33 235.03 134.881C234.968 133.468 234.875 132.016 234.348 130.794C233.697 129.304 232.487 128.311 231.247 127.547C224.176 122.964 215.895 122.582 207.925 122.429C190.806 122.047 173.686 122.238 156.567 122.926C154.644 122.964 152.628 123.079 150.923 124.11Z" fill="#EAF1F2"/>
<path d="M162.739 112.88C181.44 117.578 200.544 117.196 219.183 111.773C223.122 110.627 227.371 108.946 230.038 103.484C234.628 94.0498 231.65 78.0459 225.882 71.0561C220.114 64.0663 212.763 63.5696 205.847 63.3023C194.745 62.8821 183.58 62.462 172.601 65.2885C166.244 66.9309 159.576 70.1011 155.327 78.8097C151.078 87.5183 150.799 103.255 156.226 109.443C158.118 111.62 160.475 112.307 162.739 112.88Z" fill="#EAF1F2"/>
<path d="M167.483 302.407C182.958 303.897 198.744 303.782 214.188 302.063C217.445 301.681 220.949 301.146 223.151 299.428C226.935 296.41 224.485 291.33 219.709 289.115C214.933 286.899 208.854 286.747 203.117 286.632C193.937 286.479 184.695 286.365 175.608 287.281C170.367 287.816 164.815 288.809 161.311 291.598C157.806 294.386 157.558 299.389 162.055 301.337C163.668 301.987 165.591 302.216 167.483 302.407Z" fill="#EAF1F2"/>
<path d="M173.316 101.46C185.659 103.484 198.22 103.331 210.532 100.963C213.137 100.467 215.928 99.7409 217.665 97.3728C220.704 93.2859 218.719 86.3723 214.936 83.3548C211.152 80.3374 206.283 80.1082 201.724 79.9936C194.405 79.8026 187.055 79.6118 179.798 80.8723C175.611 81.598 171.207 82.9347 168.416 86.7161C165.625 90.4974 165.439 97.2963 169.005 99.9318C170.277 100.925 171.828 101.231 173.316 101.46Z" fill="#2F2E41"/>
<path d="M175.886 124.492C174.336 124.492 172.506 124.721 171.762 126.402C171.389 127.242 171.39 128.235 171.421 129.19C171.948 152.337 172.506 175.521 173.033 198.668C184.911 202.564 197.564 206.46 209.256 201.8C210.838 176.4 211.21 150.924 210.342 125.447C205.504 124.148 200.48 124.187 195.518 124.263C189.005 124.339 182.461 124.416 175.886 124.492Z" fill="#E2ECED"/>
<path d="M211.398 125.447C211.367 124.912 211.088 124.339 210.654 124.225C205.32 122.888 199.924 122.926 194.527 123.002C188.325 123.079 182.122 123.155 175.919 123.193C171.795 123.346 170.368 125.485 170.461 130.489C170.647 138.052 170.802 145.614 170.988 153.215C171.33 168.341 171.702 183.504 172.043 198.63C172.043 199.203 172.353 199.699 172.787 199.852C184.727 203.786 197.35 207.606 209.538 202.984C210.003 202.793 210.251 202.335 210.282 201.762C211.864 176.4 212.236 150.923 211.398 125.447ZM208.328 200.845C196.946 204.856 185.223 201.342 174.09 197.675C173.811 185.529 173.531 173.382 173.252 161.236C173.097 155.01 172.973 148.785 172.818 142.521C172.756 139.388 172.663 136.295 172.601 133.163C172.57 131.826 172.539 130.489 172.508 129.152C172.446 126.517 174.183 125.791 175.95 125.714C181.471 125.638 186.991 125.6 192.512 125.523C198.156 125.447 203.862 125.218 209.445 126.478C210.158 151.305 209.817 176.094 208.328 200.845Z" fill="#2F3F47"/>
<path opacity="0.2" d="M193.906 194.924C194.185 194.39 194.34 193.817 194.495 193.244C194.681 192.442 194.836 191.601 194.712 190.761C194.619 190.112 194.34 189.539 194.061 188.928C193.968 188.737 193.875 188.508 193.782 188.317C193.626 188.011 193.502 187.667 193.285 187.4C192.758 186.674 191.921 186.445 191.145 186.254C190.587 186.139 190.029 186.025 189.44 186.101C188.168 186.292 187.083 187.476 186.649 188.966C186.214 190.417 186.369 192.098 186.897 193.511C187.579 195.306 188.975 196.796 190.587 196.949C191.921 197.063 193.223 196.261 193.906 194.924Z" fill="#272525"/>
<path d="M193.009 194.695C193.289 194.161 193.444 193.588 193.599 193.015C193.785 192.213 193.94 191.372 193.816 190.532C193.723 189.883 193.444 189.31 193.195 188.699C193.102 188.508 193.01 188.279 192.916 188.088C192.761 187.782 192.637 187.438 192.42 187.171C191.893 186.445 191.056 186.216 190.28 186.025C189.722 185.91 189.164 185.796 188.575 185.872C187.303 186.063 186.217 187.247 185.783 188.737C185.349 190.226 185.504 191.869 186.031 193.282C186.714 195.077 188.109 196.567 189.722 196.72C191.025 196.872 192.327 196.032 193.009 194.695Z" fill="#83959E"/>
<path opacity="0.2" d="M190.497 192.213C190.745 191.793 190.777 191.296 190.777 190.8C190.777 190.647 190.776 190.456 190.745 190.303C190.683 190.074 190.528 189.883 190.342 189.73C189.815 189.31 189.071 189.272 188.512 189.692C187.985 190.112 187.675 191.029 187.892 191.754C188.233 192.213 188.637 192.595 189.133 192.748C189.629 192.862 190.187 192.709 190.497 192.213Z" fill="black"/>
<path opacity="0.2" d="M181.374 96.0769C181.654 95.5422 181.809 94.9692 181.964 94.3963C182.15 93.5942 182.305 92.7538 182.181 91.9135C182.088 91.2642 181.809 90.6913 181.529 90.0802C181.436 89.8892 181.343 89.6601 181.25 89.4692C181.095 89.1636 180.971 88.8199 180.754 88.5525C180.227 87.8268 179.39 87.5974 178.614 87.4064C178.056 87.2919 177.498 87.1774 176.909 87.2537C175.637 87.4447 174.551 88.6288 174.117 90.1184C173.683 91.5699 173.838 93.2505 174.365 94.6637C175.048 96.4589 176.443 97.9486 178.056 98.1014C179.39 98.216 180.692 97.4138 181.374 96.0769Z" fill="#272525"/>
<path d="M180.478 95.8479C180.757 95.3132 180.912 94.7402 181.067 94.1673C181.254 93.3652 181.409 92.5248 181.285 91.6845C181.192 91.0352 180.912 90.4623 180.664 89.8512C180.571 89.6602 180.478 89.4311 180.385 89.2402C180.23 88.9346 180.106 88.5906 179.889 88.3233C179.362 87.5975 178.524 87.3684 177.749 87.1774C177.191 87.0629 176.633 86.9484 176.043 87.0247C174.772 87.2157 173.686 88.3998 173.252 89.8894C172.818 91.379 172.973 93.0215 173.5 94.4347C174.183 96.2299 175.578 97.7194 177.191 97.8722C178.493 98.025 179.796 97.1848 180.478 95.8479Z" fill="#CCCCCC"/>
<path d="M177.966 93.3654C178.214 92.9453 178.245 92.4488 178.245 91.9522C178.245 91.7994 178.245 91.6084 178.214 91.4556C178.152 91.2265 177.997 91.0356 177.811 90.8829C177.284 90.4627 176.539 90.4245 175.981 90.8446C175.454 91.2648 175.144 92.1814 175.361 92.9071C175.702 93.3655 176.105 93.7474 176.601 93.9002C177.098 94.0148 177.656 93.862 177.966 93.3654Z" fill="black"/>
<path opacity="0.2" d="M194.189 250.614C194.468 250.079 194.623 249.506 194.778 248.933C194.964 248.131 195.12 247.291 194.995 246.451C194.902 245.801 194.623 245.228 194.375 244.617C194.282 244.426 194.189 244.197 194.096 244.006C193.941 243.7 193.817 243.357 193.6 243.089C193.073 242.364 192.235 242.135 191.46 241.944C190.902 241.829 190.344 241.714 189.754 241.791C188.483 241.982 187.397 243.166 186.963 244.656C186.529 246.107 186.684 247.788 187.211 249.201C187.893 250.996 189.289 252.486 190.902 252.638C192.173 252.791 193.507 251.989 194.189 250.614Z" fill="#272525"/>
<path d="M193.289 250.423C193.568 249.888 193.723 249.315 193.878 248.742C194.064 247.94 194.219 247.1 194.095 246.26C194.002 245.61 193.723 245.037 193.444 244.426C193.351 244.235 193.257 244.006 193.164 243.815C193.009 243.51 192.885 243.166 192.668 242.898C192.141 242.173 191.304 241.944 190.528 241.753C189.97 241.638 189.412 241.523 188.823 241.6C187.551 241.791 186.466 242.975 186.031 244.464C185.597 245.916 185.752 247.596 186.28 249.01C186.962 250.805 188.357 252.295 189.97 252.447C191.273 252.562 192.606 251.76 193.289 250.423Z" fill="#83959E"/>
<path opacity="0.2" d="M190.775 247.94C191.023 247.52 191.023 247.024 191.054 246.527C191.054 246.374 191.054 246.183 191.023 246.03C190.961 245.801 190.806 245.61 190.62 245.457C190.093 245.037 189.348 244.999 188.79 245.419C188.263 245.839 187.953 246.756 188.17 247.482C188.511 247.94 188.914 248.322 189.41 248.475C189.875 248.59 190.465 248.437 190.775 247.94Z" fill="black"/>
<path d="M236.244 198.821C236.647 197.981 237.05 197.14 237.702 196.606C238.229 196.185 238.849 196.071 239.469 195.918C242.075 195.422 244.711 195.192 247.347 195.231C249.083 197.331 250.572 199.776 251.75 202.411C251.968 202.908 252.185 203.443 252.185 203.977C252.185 204.398 252.03 204.818 251.875 205.238C250.138 209.783 248.401 214.29 246.664 218.836C245.176 218.759 243.687 218.415 242.229 217.842C243.222 215.092 244.245 212.304 245.238 209.554C246.199 206.919 247.13 203.672 245.734 201.342C243.935 201.495 242.136 201.647 240.307 201.8C239.997 201.838 239.655 201.838 239.407 202.029C239.066 202.259 238.88 202.679 238.694 203.099C237.547 205.658 236.585 208.332 235.779 211.043C234.724 210.432 233.701 209.783 232.646 209.172C233.112 205.467 234.693 202.106 236.244 198.821Z" fill="#2F3F47"/>
<path d="M250.228 197.79C250.321 197.713 250.383 197.56 250.446 197.408C251.035 195.765 251.624 194.084 252.213 192.442C250.104 191.296 247.933 190.341 245.7 189.577C245.111 190.952 244.677 192.366 244.336 193.855C244.274 194.161 244.212 194.543 244.367 194.81C244.46 195.001 244.615 195.078 244.77 195.192C246.352 196.224 247.996 197.064 249.701 197.751C249.856 197.828 250.073 197.904 250.228 197.79Z" fill="#2F3F47"/>
<path d="M253.485 191.525C255.222 189.119 255.284 181.633 255.718 178.692C256.307 174.719 256.927 170.671 256.772 166.622C256.617 162.573 255.687 158.448 253.516 155.392C252.275 153.674 250.725 152.337 249.081 151.229C244.181 147.791 238.661 145.729 233.047 145.232C232.613 145.194 232.117 145.194 231.745 145.461C231.341 145.767 231.155 146.378 231.031 146.951C230.442 149.128 229.729 151.458 229.45 153.712C228.984 157.684 228.488 156.424 230.659 158.142C232.303 159.441 235.776 159.517 237.761 160.549C240.056 161.771 242.227 163.337 244.367 164.865C245.732 165.858 247.189 166.965 247.716 168.799C247.996 169.792 247.934 170.9 247.871 171.969C247.468 178.31 246.786 184.612 245.763 190.838C245.577 191.907 252.151 192.862 253.206 191.907C253.268 191.793 253.361 191.678 253.485 191.525Z" fill="#516770"/>
<g opacity="0.15">
<path opacity="0.15" d="M248.06 152.871C247.284 156.538 245.982 159.746 244.276 162.878C243.935 163.49 244.555 164.177 244.989 163.642C247.377 160.816 248.959 157.187 249.89 153.33C250.231 151.878 248.37 151.42 248.06 152.871Z" fill="#272525"/>
<path opacity="0.15" d="M252.464 156.615C251.347 160.09 249.704 162.153 247.223 164.216C246.881 164.483 247.161 165.171 247.533 164.98C249.114 164.216 250.541 163.834 251.812 162.344C252.991 160.969 253.921 159.327 254.387 157.417C254.728 156.08 252.867 155.316 252.464 156.615Z" fill="#272525"/>
</g>
<path opacity="0.2" d="M210.374 96.0769C210.654 95.5422 210.809 94.9692 210.964 94.3963C211.15 93.5942 211.305 92.7538 211.181 91.9135C211.088 91.2642 210.809 90.6913 210.529 90.0802C210.436 89.8892 210.343 89.6601 210.25 89.4692C210.095 89.1636 209.971 88.8199 209.754 88.5525C209.227 87.8268 208.39 87.5974 207.614 87.4064C207.056 87.2919 206.498 87.1774 205.909 87.2537C204.637 87.4447 203.551 88.6288 203.117 90.1184C202.683 91.5699 202.838 93.2505 203.365 94.6637C204.048 96.4589 205.443 97.9486 207.056 98.1014C208.39 98.216 209.692 97.4138 210.374 96.0769Z" fill="#272525"/>
<path d="M209.478 95.8479C209.757 95.3132 209.912 94.7402 210.067 94.1673C210.254 93.3652 210.409 92.5248 210.285 91.6845C210.192 91.0352 209.912 90.4623 209.664 89.8512C209.571 89.6602 209.478 89.4311 209.385 89.2402C209.23 88.9346 209.106 88.5906 208.889 88.3233C208.362 87.5975 207.524 87.3684 206.749 87.1774C206.191 87.0629 205.633 86.9484 205.043 87.0247C203.772 87.2157 202.686 88.3998 202.252 89.8894C201.818 91.379 201.973 93.0215 202.5 94.4347C203.183 96.2299 204.578 97.7194 206.191 97.8722C207.493 98.025 208.796 97.1848 209.478 95.8479Z" fill="#CACACA"/>
<path d="M206.966 93.3654C207.214 92.9453 207.245 92.4488 207.245 91.9522C207.245 91.7994 207.245 91.6084 207.214 91.4556C207.152 91.2265 206.997 91.0356 206.811 90.8829C206.284 90.4627 205.539 90.4245 204.981 90.8446C204.454 91.2648 204.144 92.1814 204.361 92.9071C204.702 93.3655 205.105 93.7474 205.601 93.9002C206.098 94.0148 206.656 93.862 206.966 93.3654Z" fill="black"/>
<defs>
<linearGradient id="paint0_linear_140_234" x1="163.26" y1="315.4" x2="267.646" y2="315.4" gradientUnits="userSpaceOnUse">
<stop stop-color="#4D4D4D"/>
<stop offset="1"/>
</linearGradient>
<linearGradient id="paint1_linear_140_234" x1="163.262" y1="315.4" x2="267.648" y2="315.4" gradientUnits="userSpaceOnUse">
<stop/>
<stop offset="1"/>
</linearGradient>
</defs>
</svg>
